<svg width="50" height="42" viewBox="0 0 50 42" fill="none" xmlns="http://www.w3.org/2000/svg">
<path d="M47.9166 32.4916C47.4111 32.4916 46.993 32.3263 46.6625 31.9957C46.3319 31.6652 46.1666 31.2471 46.1666 30.7416V16.0416L25.6333 27.1249C25.3611 27.2804 25.0889 27.3874 24.8166 27.4457C24.5444 27.5041 24.2527 27.5332 23.9416 27.5332C23.6305 27.5332 23.3486 27.5041 23.0958 27.4457C22.843 27.3874 22.5805 27.2804 22.3083 27.1249L1.1333 15.5166C0.82219 15.361 0.598579 15.1471 0.462467 14.8749C0.326356 14.6027 0.258301 14.311 0.258301 13.9999C0.258301 13.6888 0.326356 13.3971 0.462467 13.1249C0.598579 12.8527 0.82219 12.6388 1.1333 12.4832L22.25 0.933219C22.5222 0.777664 22.7944 0.660997 23.0666 0.583219C23.3389 0.505442 23.6305 0.466553 23.9416 0.466553C24.2527 0.466553 24.5444 0.505442 24.8166 0.583219C25.0889 0.660997 25.3611 0.777664 25.6333 0.933219L48.7333 13.4749C49.0444 13.6693 49.2777 13.9027 49.4333 14.1749C49.5889 14.4471 49.6666 14.7388 49.6666 15.0499V30.7416C49.6666 31.2471 49.5014 31.6652 49.1708 31.9957C48.8402 32.3263 48.4222 32.4916 47.9166 32.4916ZM23.9416 41.4749C23.6305 41.4749 23.3389 41.4457 23.0666 41.3874C22.7944 41.3291 22.5222 41.2221 22.25 41.0666L8.8333 33.7166C8.28886 33.4054 7.85136 32.9777 7.5208 32.4332C7.19025 31.8888 7.02497 31.286 7.02497 30.6249V20.4749L21.55 28.4082L22.7166 28.9916C23.1055 29.186 23.5139 29.2832 23.9416 29.2832C24.3694 29.2832 24.7875 29.186 25.1958 28.9916C25.6041 28.7971 26.0027 28.6027 26.3916 28.4082L40.8583 20.4749V30.6249C40.8583 31.286 40.693 31.8888 40.3625 32.4332C40.0319 32.9777 39.5944 33.4054 39.05 33.7166L25.6333 41.0666C25.3611 41.2221 25.0889 41.3291 24.8166 41.3874C24.5444 41.4457 24.2527 41.4749 23.9416 41.4749Z" fill="#4268FB"/>
</svg>
