<svg width="38" height="38" viewBox="0 0 38 38" fill="none" xmlns="http://www.w3.org/2000/svg">
<path d="M4.41139 37.6667C3.28708 37.6667 2.32631 37.2669 1.52909 36.4672C0.731863 35.6675 0.333252 34.7063 0.333252 33.5833V23.0833C0.333252 21.9604 0.733594 20.9991 1.53428 20.1995C2.33492 19.3998 3.29742 19 4.42178 19C5.54609 19 6.50686 19.3998 7.30409 20.1995C8.10131 20.9991 8.49992 21.9604 8.49992 23.0833V33.5833C8.49992 34.7063 8.09958 35.6675 7.29889 36.4672C6.49825 37.2669 5.53575 37.6667 4.41139 37.6667ZM18.9947 37.6667C17.8704 37.6667 16.9096 37.2669 16.1124 36.4672C15.3152 35.6675 14.9166 34.7063 14.9166 33.5833V4.41667C14.9166 3.29375 15.3169 2.33246 16.1176 1.53278C16.9183 0.73315 17.8808 0.333333 19.0051 0.333333C20.1294 0.333333 21.0902 0.73315 21.8874 1.53278C22.6846 2.33246 23.0833 3.29375 23.0833 4.41667V33.5833C23.0833 34.7063 22.6829 35.6675 21.8822 36.4672C21.0816 37.2669 20.1191 37.6667 18.9947 37.6667ZM33.5781 37.6667C32.4537 37.6667 31.493 37.2669 30.6958 36.4672C29.8985 35.6675 29.4999 34.7063 29.4999 33.5833V16.0833C29.4999 14.9604 29.9003 13.9991 30.7009 13.1995C31.5016 12.3998 32.4641 12 33.5884 12C34.7128 12 35.6735 12.3998 36.4708 13.1995C37.268 13.9991 37.6666 14.9604 37.6666 16.0833V33.5833C37.6666 34.7063 37.2662 35.6675 36.4656 36.4672C35.6649 37.2669 34.7024 37.6667 33.5781 37.6667Z" fill="#26325E"/>
</svg>
