<svg width="48" height="51" viewBox="0 0 48 51" fill="none" xmlns="http://www.w3.org/2000/svg">
<path d="M5.21675 28.4998C4.82786 28.4998 4.55564 28.3442 4.40008 28.0331C4.24453 27.722 4.26397 27.4303 4.45841 27.1581L19.5084 5.28309C19.7417 4.93309 20.0626 4.81643 20.4709 4.93309C20.8792 5.04976 21.0834 5.32198 21.0834 5.74976V27.6248C21.0834 27.8581 20.9959 28.0623 20.8209 28.2373C20.6459 28.4123 20.4417 28.4998 20.2084 28.4998H5.21675ZM26.3334 27.3914C26.9556 25.2136 27.4029 23.0456 27.6751 20.8873C27.9473 18.7289 28.0834 16.4053 28.0834 13.9164C28.0834 11.8553 27.9765 9.84282 27.7626 7.87893C27.5487 5.91504 27.2084 3.99976 26.7417 2.13309C26.5473 1.35532 26.6154 0.820594 26.9459 0.528927C27.2765 0.237261 27.7723 0.305316 28.4334 0.733094C30.1445 1.78309 31.8945 3.21226 33.6834 5.02059C35.4723 6.82893 37.1251 8.89976 38.6417 11.2331C40.1584 13.5664 41.4417 16.1039 42.4917 18.8456C43.5417 21.5873 44.164 24.4164 44.3584 27.3331C44.3973 27.6442 44.3001 27.9164 44.0667 28.1498C43.8334 28.3831 43.5612 28.4998 43.2501 28.4998H27.1501C26.839 28.4998 26.6056 28.3928 26.4501 28.1789C26.2945 27.965 26.2556 27.7025 26.3334 27.3914ZM22.2501 39.4664C21.4723 40.1275 20.6362 40.6428 19.7417 41.0123C18.8473 41.3817 17.9334 41.5664 17.0001 41.5664C16.0667 41.5664 15.1529 41.3817 14.2584 41.0123C13.364 40.6428 12.5279 40.1275 11.7501 39.4664C11.2056 39.0386 10.6029 38.815 9.94175 38.7956C9.28064 38.7761 8.67786 38.9609 8.13341 39.3498C7.74453 39.622 7.35564 39.8553 6.96675 40.0498C6.57786 40.2442 6.20841 40.4192 5.85841 40.5748C5.04175 40.0303 4.24453 39.3206 3.46675 38.4456C2.68897 37.5706 2.0473 36.5886 1.54175 35.4998C1.26953 34.9164 1.30841 34.3817 1.65841 33.8956C2.00841 33.4095 2.53341 33.1664 3.23341 33.1664H44.7667C45.4667 33.1664 45.9917 33.4095 46.3417 33.8956C46.6917 34.3817 46.7306 34.9164 46.4584 35.4998C45.9529 36.5886 45.3112 37.5706 44.5334 38.4456C43.7556 39.3206 42.9584 40.0303 42.1417 40.5748C41.7917 40.4192 41.4223 40.2442 41.0334 40.0498C40.6445 39.8553 40.2556 39.622 39.8667 39.3498C39.3223 38.9609 38.7195 38.7761 38.0584 38.7956C37.3973 38.815 36.7945 39.0386 36.2501 39.4664C35.4723 40.1275 34.6362 40.6428 33.7417 41.0123C32.8473 41.3817 31.9334 41.5664 31.0001 41.5664C30.0667 41.5664 29.1529 41.3817 28.2584 41.0123C27.364 40.6428 26.5279 40.1275 25.7501 39.4664C25.2056 39.0386 24.6223 38.8248 24.0001 38.8248C23.3779 38.8248 22.7945 39.0386 22.2501 39.4664ZM3.00008 50.6664C4.12786 50.6664 5.2848 50.5011 6.47091 50.1706C7.65703 49.84 8.83341 49.2275 10.0001 48.3331C11.1667 49.2275 12.3431 49.84 13.5292 50.1706C14.7154 50.5011 15.8723 50.6664 17.0001 50.6664C18.1279 50.6664 19.2848 50.5011 20.4709 50.1706C21.657 49.84 22.8334 49.2275 24.0001 48.3331C25.1667 49.2275 26.3431 49.84 27.5292 50.1706C28.7154 50.5011 29.8723 50.6664 31.0001 50.6664C32.1279 50.6664 33.2848 50.5011 34.4709 50.1706C35.657 49.84 36.8334 49.2275 38.0001 48.3331C39.1667 49.2275 40.3431 49.84 41.5292 50.1706C42.7154 50.5011 43.8723 50.6664 45.0001 50.6664H45.5834C46.089 50.6664 46.507 50.5011 46.8376 50.1706C47.1681 49.84 47.3334 49.422 47.3334 48.9164C47.3334 48.4109 47.1681 47.9928 46.8376 47.6623C46.507 47.3317 46.089 47.1664 45.5834 47.1664H45.0001C44.0279 47.1664 43.0459 47.0206 42.0542 46.7289C41.0626 46.4373 40.1001 45.9609 39.1667 45.2998C38.8556 45.0664 38.4667 44.9498 38.0001 44.9498C37.5334 44.9498 37.1445 45.0664 36.8334 45.2998C35.9001 45.9609 34.9376 46.4373 33.9459 46.7289C32.9542 47.0206 31.9723 47.1664 31.0001 47.1664C29.989 47.1664 28.9973 47.0303 28.0251 46.7581C27.0529 46.4859 26.1001 45.9998 25.1667 45.2998C24.8556 45.0664 24.4765 44.9498 24.0292 44.9498C23.582 44.9498 23.1834 45.0664 22.8334 45.2998C21.9001 45.9609 20.9376 46.4373 19.9459 46.7289C18.9542 47.0206 17.9723 47.1664 17.0001 47.1664C15.989 47.1664 14.9973 47.0303 14.0251 46.7581C13.0529 46.4859 12.1001 45.9998 11.1667 45.2998C10.8556 45.0275 10.4667 44.8914 10.0001 44.8914C9.53341 44.8914 9.14453 45.0275 8.83341 45.2998C7.90008 45.9998 6.9473 46.4859 5.97508 46.7581C5.00286 47.0303 4.01119 47.1664 3.00008 47.1664H2.41675C1.91119 47.1664 1.49314 47.3317 1.16258 47.6623C0.832026 47.9928 0.666748 48.4109 0.666748 48.9164C0.666748 49.422 0.832026 49.84 1.16258 50.1706C1.49314 50.5011 1.91119 50.6664 2.41675 50.6664H3.00008Z" fill="white"/>
</svg>
