<svg width="30" height="27" viewBox="0 0 30 27" fill="current" xmlns="http://www.w3.org/2000/svg">
<path d="M18.6375 26.2125L13.8375 21.4125C13.6125 21.1875 13.5 20.925 13.5 20.625C13.5 20.325 13.625 20.05 13.875 19.8C14.075 19.6 14.3375 19.5 14.6625 19.5C14.9875 19.5 15.2625 19.6 15.4875 19.8L19.425 23.775L27.6375 15.5625C27.8625 15.3375 28.125 15.2313 28.425 15.2438C28.725 15.2563 28.9875 15.375 29.2125 15.6C29.4375 15.825 29.55 16.0938 29.55 16.4063C29.55 16.7188 29.425 17 29.175 17.25L20.2125 26.2125C19.9875 26.4375 19.725 26.55 19.425 26.55C19.125 26.55 18.8625 26.4375 18.6375 26.2125ZM2.25 24C1.625 24 1.09375 23.7813 0.65625 23.3438C0.21875 22.9063 0 22.375 0 21.75V2.25C0 1.625 0.21875 1.09375 0.65625 0.65625C1.09375 0.21875 1.625 0 2.25 0H27.75C28.375 0 28.9063 0.21875 29.3438 0.65625C29.7813 1.09375 30 1.625 30 2.25V11.2125H28.8L19.425 20.7L16.9875 18.225C16.3375 17.575 15.5563 17.2438 14.6438 17.2313C13.7313 17.2188 12.95 17.5375 12.3 18.1875C11.65 18.8375 11.3188 19.625 11.3063 20.55C11.2938 21.475 11.6125 22.2625 12.2625 22.9125L13.3125 24H2.25ZM2.25 11.2125H27.75V6H2.25V11.2125Z" fill="current"/>
</svg>
