<svg width="43" height="48" viewBox="0 0 43 48" fill="none" xmlns="http://www.w3.org/2000/svg">
<path d="M31.3083 36.25C32.3194 36.25 33.1749 35.8806 33.8749 35.1417C34.5749 34.4028 34.9249 33.5278 34.9249 32.5167C34.9249 31.5056 34.5749 30.65 33.8749 29.95C33.1749 29.25 32.3194 28.9 31.3083 28.9C30.2971 28.9 29.4221 29.25 28.6833 29.95C27.9444 30.65 27.5749 31.5056 27.5749 32.5167C27.5749 33.5278 27.9444 34.4028 28.6833 35.1417C29.4221 35.8806 30.2971 36.25 31.3083 36.25ZM31.2499 43.5417C32.5333 43.5417 33.6999 43.2695 34.7499 42.725C35.7999 42.1806 36.6944 41.4028 37.4333 40.3917C36.4221 39.8472 35.411 39.4389 34.3999 39.1667C33.3888 38.8945 32.3388 38.7583 31.2499 38.7583C30.161 38.7583 29.1013 38.8945 28.0708 39.1667C27.0402 39.4389 26.0388 39.8472 25.0666 40.3917C25.8055 41.4028 26.6902 42.1806 27.7208 42.725C28.7513 43.2695 29.9277 43.5417 31.2499 43.5417ZM31.4249 47.3333C28.3916 47.3333 25.8055 46.2542 23.6666 44.0958C21.5277 41.9375 20.4583 39.3806 20.4583 36.425C20.4583 33.3917 21.5277 30.7958 23.6666 28.6375C25.8055 26.4792 28.3916 25.4 31.4249 25.4C34.4194 25.4 36.9958 26.4792 39.1541 28.6375C41.3124 30.7958 42.3916 33.3917 42.3916 36.425C42.3916 39.3806 41.3124 41.9375 39.1541 44.0958C36.9958 46.2542 34.4194 47.3333 31.4249 47.3333ZM18.9999 47.1583H18.5624C18.4652 47.1583 18.3194 47.1195 18.1249 47.0417C13.186 45.5639 8.98603 42.4528 5.52492 37.7083C2.06381 32.9639 0.333252 27.5778 0.333252 21.55V10.0583C0.333252 9.31945 0.547141 8.64862 0.974919 8.04584C1.4027 7.44306 1.94714 7.00556 2.60825 6.73334L17.7749 1.07501C18.2027 0.919453 18.611 0.841675 18.9999 0.841675C19.3888 0.841675 19.7971 0.919453 20.2249 1.07501L35.3916 6.73334C36.0527 7.00556 36.5971 7.44306 37.0249 8.04584C37.4527 8.64862 37.6666 9.31945 37.6666 10.0583V23.3583C36.6944 22.8917 35.6833 22.532 34.6333 22.2792C33.5833 22.0264 32.5138 21.9 31.4249 21.9C27.4194 21.9 24.0069 23.3195 21.1874 26.1583C18.368 28.9972 16.9583 32.4195 16.9583 36.425C16.9583 38.2917 17.3374 40.1195 18.0958 41.9083C18.8541 43.6972 19.8944 45.2528 21.2166 46.575C20.7888 46.7695 20.3902 46.9153 20.0208 47.0125C19.6513 47.1097 19.311 47.1583 18.9999 47.1583Z" fill="#26325E"/>
</svg>
