<svg width="42" height="42" viewBox="0 0 42 42" fill="current" xmlns="http://www.w3.org/2000/svg">
<path d="M1.75 19.25C1.25417 19.25 0.838542 19.0823 0.503125 18.7469C0.167708 18.4115 0 17.9958 0 17.5V1.75C0 1.25417 0.167708 0.838542 0.503125 0.503125C0.838542 0.167708 1.25417 0 1.75 0H17.5C17.9958 0 18.4115 0.167708 18.7469 0.503125C19.0823 0.838542 19.25 1.25417 19.25 1.75V17.5C19.25 17.9958 19.0823 18.4115 18.7469 18.7469C18.4115 19.0823 17.9958 19.25 17.5 19.25H1.75ZM24.5 19.25C24.0042 19.25 23.5885 19.0823 23.2531 18.7469C22.9177 18.4115 22.75 17.9958 22.75 17.5V1.75C22.75 1.25417 22.9177 0.838542 23.2531 0.503125C23.5885 0.167708 24.0042 0 24.5 0H40.25C40.7458 0 41.1615 0.167708 41.4969 0.503125C41.8323 0.838542 42 1.25417 42 1.75V17.5C42 17.9958 41.8323 18.4115 41.4969 18.7469C41.1615 19.0823 40.7458 19.25 40.25 19.25H24.5ZM1.75 42C1.25417 42 0.838542 41.8323 0.503125 41.4969C0.167708 41.1615 0 40.7458 0 40.25V24.5C0 24.0042 0.167708 23.5885 0.503125 23.2531C0.838542 22.9177 1.25417 22.75 1.75 22.75H17.5C17.9958 22.75 18.4115 22.9177 18.7469 23.2531C19.0823 23.5885 19.25 24.0042 19.25 24.5V40.25C19.25 40.7458 19.0823 41.1615 18.7469 41.4969C18.4115 41.8323 17.9958 42 17.5 42H1.75ZM32.3648 42C31.866 42 31.4514 41.8323 31.1208 41.4969C30.7903 41.1615 30.625 40.7458 30.625 40.25V34.125H24.4417C23.975 34.125 23.5764 33.9563 23.2458 33.619C22.9153 33.2816 22.75 32.8635 22.75 32.3648C22.75 31.866 22.9177 31.4514 23.2531 31.1208C23.5885 30.7903 24.0042 30.625 24.5 30.625H30.625V24.4417C30.625 23.975 30.7937 23.5764 31.131 23.2458C31.4684 22.9153 31.8865 22.75 32.3852 22.75C32.884 22.75 33.2986 22.9177 33.6292 23.2531C33.9597 23.5885 34.125 24.0042 34.125 24.5V30.625H40.3083C40.775 30.625 41.1736 30.7937 41.5042 31.131C41.8347 31.4684 42 31.8865 42 32.3852C42 32.884 41.8323 33.2986 41.4969 33.6292C41.1615 33.9597 40.7458 34.125 40.25 34.125H34.125V40.3083C34.125 40.775 33.9563 41.1736 33.619 41.5042C33.2816 41.8347 32.8635 42 32.3648 42Z" fill="current"/>
</svg>
