<svg width="40" height="38" viewBox="0 0 40 38" fill="none" xmlns="http://www.w3.org/2000/svg">
<path d="M17.6667 37.6667C17.0056 37.6667 16.4514 37.4431 16.0042 36.9958C15.557 36.5486 15.3333 35.9944 15.3333 35.3333V21.3333L1.39167 3.54167C0.847228 2.88056 0.76945 2.18056 1.15834 1.44167C1.54723 0.702777 2.15001 0.333333 2.96667 0.333333H37.0333C37.85 0.333333 38.4528 0.702777 38.8417 1.44167C39.2306 2.18056 39.1528 2.88056 38.6083 3.54167L24.6667 21.3333V35.3333C24.6667 35.9944 24.4431 36.5486 23.9958 36.9958C23.5486 37.4431 22.9945 37.6667 22.3333 37.6667H17.6667Z" fill="#4268FB"/>
</svg>
