<svg width="48" height="48" viewBox="0 0 48 48" fill="none" xmlns="http://www.w3.org/2000/svg">
<path d="M24.0001 47.3334C20.7723 47.3334 17.739 46.7209 14.9001 45.4959C12.0612 44.2709 9.59175 42.6084 7.49175 40.5084C5.39175 38.4084 3.72925 35.939 2.50425 33.1001C1.27925 30.2612 0.666748 27.2279 0.666748 24.0001C0.666748 20.7723 1.27925 17.739 2.50425 14.9001C3.72925 12.0612 5.39175 9.59175 7.49175 7.49175C9.59175 5.39175 12.0612 3.72925 14.9001 2.50425C17.739 1.27925 20.7723 0.666748 24.0001 0.666748C27.2279 0.666748 30.2612 1.27925 33.1001 2.50425C35.939 3.72925 38.4084 5.39175 40.5084 7.49175C42.6084 9.59175 44.2709 12.0612 45.4959 14.9001C46.7209 17.739 47.3334 20.7723 47.3334 24.0001C47.3334 27.2279 46.7209 30.2612 45.4959 33.1001C44.2709 35.939 42.6084 38.4084 40.5084 40.5084C38.4084 42.6084 35.939 44.2709 33.1001 45.4959C30.2612 46.7209 27.2279 47.3334 24.0001 47.3334ZM16.9417 42.6667L20.6167 33.9167C19.139 33.4112 17.8265 32.6042 16.6792 31.4959C15.532 30.3876 14.6667 29.0362 14.0834 27.4417L5.33341 30.9417C6.53897 33.7029 8.13341 36.0945 10.1167 38.1167C12.1001 40.139 14.3751 41.6556 16.9417 42.6667ZM14.0251 20.6167C14.6473 19.0223 15.5223 17.6612 16.6501 16.5334C17.7779 15.4056 19.0806 14.589 20.5584 14.0834L17.0584 5.33341C14.1417 6.53897 11.6723 8.16258 9.65008 10.2042C7.62786 12.2459 6.18897 14.5501 5.33341 17.1167L14.0251 20.6167ZM24.0001 31.0001C25.9445 31.0001 27.5973 30.3195 28.9584 28.9584C30.3195 27.5973 31.0001 25.9445 31.0001 24.0001C31.0001 22.0556 30.3195 20.4029 28.9584 19.0417C27.5973 17.6806 25.9445 17.0001 24.0001 17.0001C22.0556 17.0001 20.4029 17.6806 19.0417 19.0417C17.6806 20.4029 17.0001 22.0556 17.0001 24.0001C17.0001 25.9445 17.6806 27.5973 19.0417 28.9584C20.4029 30.3195 22.0556 31.0001 24.0001 31.0001ZM31.0584 42.6667C33.7417 41.5779 36.0751 40.032 38.0584 38.0292C40.0417 36.0265 41.5779 33.7029 42.6667 31.0584L33.9167 27.4417C33.3334 29.0751 32.4681 30.4459 31.3209 31.5542C30.1737 32.6626 28.8612 33.4501 27.3834 33.9167L31.0584 42.6667ZM33.9167 20.5584L42.6667 16.9417C41.5779 14.2973 40.032 11.9737 38.0292 9.97091C36.0265 7.96814 33.7029 6.4223 31.0584 5.33341L27.5001 14.0834C28.9779 14.589 30.2612 15.3959 31.3501 16.5042C32.439 17.6126 33.2945 18.964 33.9167 20.5584Z" fill="#FF7853"/>
</svg>
