<svg width="48" height="48" viewBox="0 0 48 48" fill="none" xmlns="http://www.w3.org/2000/svg">
<path d="M17.7655 27.5001C15.5441 27.5001 13.6459 26.7149 12.0709 25.1446C10.4959 23.5743 9.70841 21.6785 9.70841 19.4571C9.70841 17.2358 10.4936 15.3376 12.0639 13.7626C13.6341 12.1876 15.53 11.4001 17.7514 11.4001C19.9727 11.4001 21.8709 12.1852 23.4459 13.7555C25.0209 15.3258 25.8084 17.2216 25.8084 19.443C25.8084 21.6644 25.0233 23.5626 23.453 25.1376C21.8827 26.7126 19.9868 27.5001 17.7655 27.5001ZM17.7584 24.0001C19.0223 24.0001 20.0966 23.5577 20.9813 22.673C21.8661 21.7883 22.3084 20.714 22.3084 19.4501C22.3084 18.1862 21.8661 17.1119 20.9813 16.2272C20.0966 15.3424 19.0223 14.9001 17.7584 14.9001C16.4945 14.9001 15.4202 15.3424 14.5355 16.2272C13.6508 17.1119 13.2084 18.1862 13.2084 19.4501C13.2084 20.714 13.6508 21.7883 14.5355 22.673C15.4202 23.5577 16.4945 24.0001 17.7584 24.0001ZM35.3167 30.1834C33.6056 30.1834 32.1473 29.5806 30.9417 28.3751C29.7362 27.1695 29.1334 25.7112 29.1334 24.0001C29.1334 22.289 29.7362 20.8306 30.9417 19.6251C32.1473 18.4195 33.6056 17.8167 35.3167 17.8167C37.0279 17.8167 38.4862 18.4195 39.6917 19.6251C40.8973 20.8306 41.5001 22.289 41.5001 24.0001C41.5001 25.7112 40.8973 27.1695 39.6917 28.3751C38.4862 29.5806 37.0279 30.1834 35.3167 30.1834ZM20.6167 43.6001C22.4834 40.139 24.8654 37.7765 27.7626 36.5126C30.6598 35.2487 33.1779 34.6167 35.3167 34.6167C36.2112 34.6167 37.0376 34.6848 37.7959 34.8209C38.5542 34.957 39.3417 35.1417 40.1584 35.3751C41.1695 33.9362 42.0348 32.2228 42.7542 30.2349C43.4737 28.247 43.8334 26.1687 43.8334 24.0001C43.8334 18.4633 41.9121 13.7735 38.0694 9.93078C34.2267 6.08809 29.5369 4.16675 24.0001 4.16675C18.4633 4.16675 13.7735 6.08809 9.93078 9.93078C6.08809 13.7735 4.16675 18.4633 4.16675 24.0001C4.16675 25.9834 4.45841 27.8987 5.04175 29.7459C5.62508 31.5931 6.4223 33.2556 7.43341 34.7334C8.91119 33.9556 10.564 33.3334 12.3917 32.8667C14.2195 32.4001 16.0084 32.1667 17.7584 32.1667C18.8251 32.1667 19.8501 32.2348 20.8334 32.3709C21.8167 32.507 22.7362 32.7306 23.5917 33.0417C22.8529 33.4306 22.1723 33.8487 21.5501 34.2959C20.9279 34.7431 20.364 35.2195 19.8584 35.7251C19.4695 35.6862 19.1001 35.6667 18.7501 35.6667H17.7584C16.4362 35.6667 15.007 35.8515 13.4709 36.2209C11.9348 36.5904 10.6029 37.0473 9.47508 37.5917C10.9529 39.1473 12.6542 40.4598 14.5792 41.5292C16.5042 42.5987 18.5167 43.289 20.6167 43.6001ZM24.0274 47.3334C20.8203 47.3334 17.7973 46.7209 14.9584 45.4959C12.1195 44.2709 9.64036 42.5987 7.52091 40.4792C5.40147 38.3598 3.72925 35.8852 2.50425 33.0554C1.27925 30.2256 0.666748 27.202 0.666748 23.9846C0.666748 20.7671 1.27925 17.7487 2.50425 14.9292C3.72925 12.1098 5.40147 9.64036 7.52091 7.52091C9.64036 5.40147 12.115 3.72925 14.9448 2.50425C17.7746 1.27925 20.7982 0.666748 24.0156 0.666748C27.233 0.666748 30.2515 1.27925 33.0709 2.50425C35.8904 3.72925 38.3598 5.40147 40.4792 7.52091C42.5987 9.64036 44.2709 12.1104 45.4959 14.9311C46.7209 17.7518 47.3334 20.7657 47.3334 23.9728C47.3334 27.1799 46.7209 30.2029 45.4959 33.0417C44.2709 35.8806 42.5987 38.3598 40.4792 40.4792C38.3598 42.5987 35.8897 44.2709 33.069 45.4959C30.2484 46.7209 27.2345 47.3334 24.0274 47.3334Z" fill="#26325E"/>
</svg>
