<svg width="47" height="47" viewBox="0 0 47 47" fill="current" xmlns="http://www.w3.org/2000/svg">
<path d="M10.3416 23.875L3.04995 20.6667C2.50551 20.4333 2.17495 20.0153 2.05828 19.4125C1.94162 18.8097 2.09717 18.2944 2.52495 17.8667L10.4583 9.875C11.0027 9.33055 11.6541 8.94166 12.4125 8.70833C13.1708 8.475 13.9388 8.43611 14.7166 8.59166L19.2083 9.46666C17.0694 11.8778 15.3388 14.1625 14.0166 16.3208C12.6944 18.4792 11.4694 20.9972 10.3416 23.875ZM44.1749 0.658331C44.4083 0.69722 44.6416 0.765275 44.875 0.862498C45.1083 0.95972 45.3222 1.10555 45.5166 1.3C45.7111 1.49444 45.8569 1.69861 45.9541 1.9125C46.0513 2.12639 46.1194 2.35 46.1583 2.58333C46.4305 6.27778 45.7111 10.1278 44 14.1333C42.2888 18.1389 39.8583 21.7167 36.7083 24.8667C34.6083 26.9667 32.4694 28.7458 30.2916 30.2042C28.1138 31.6625 25.8 32.8389 23.35 33.7333C22.9222 33.9278 22.5041 33.9958 22.0958 33.9375C21.6875 33.8792 21.3666 33.7333 21.1333 33.5L13.2583 25.625C13.025 25.3917 12.8791 25.0708 12.8208 24.6625C12.7625 24.2542 12.8305 23.8361 13.025 23.4083C13.9583 20.9583 15.1541 18.6347 16.6125 16.4375C18.0708 14.2403 19.8305 12.1111 21.8916 10.05C25.0416 6.9 28.6194 4.47916 32.625 2.7875C36.6305 1.09583 40.4805 0.386109 44.1749 0.658331ZM29.1833 17.575C29.9611 18.3528 30.9236 18.7417 32.0708 18.7417C33.218 18.7417 34.1805 18.3528 34.9583 17.575C35.7361 16.7972 36.125 15.8347 36.125 14.6875C36.125 13.5403 35.7361 12.5778 34.9583 11.8C34.1805 11.0222 33.218 10.6333 32.0708 10.6333C30.9236 10.6333 29.9611 11.0222 29.1833 11.8C28.4055 12.5778 28.0166 13.5403 28.0166 14.6875C28.0166 15.8347 28.4055 16.7972 29.1833 17.575ZM22.9416 36.4167C25.8194 35.2889 28.3375 34.0639 30.4958 32.7417C32.6541 31.4194 34.9388 29.6889 37.35 27.55L38.1666 32.0417C38.3222 32.8194 38.2833 33.5875 38.0499 34.3458C37.8166 35.1042 37.4277 35.7556 36.8833 36.3L28.95 44.2333C28.5222 44.6611 27.9972 44.8167 27.375 44.7C26.7527 44.5833 26.325 44.2528 26.0916 43.7083L22.9416 36.4167ZM4.44995 32.438C5.81106 31.0849 7.46783 30.3986 9.42024 30.3792C11.3726 30.3597 13.0254 31.0306 14.3786 32.3917C15.7317 33.7528 16.4083 35.4056 16.4083 37.35C16.4083 39.2944 15.7277 40.9472 14.3666 42.3083C13.3555 43.3194 11.7847 44.1556 9.65422 44.8167C7.52373 45.4778 4.33064 46.1 0.0749512 46.6833C0.658284 42.4444 1.27652 39.2619 1.92966 37.1356C2.5828 35.0092 3.4229 33.4434 4.44995 32.438Z" fill="current"/>
</svg>
