<svg width="48" height="48" viewBox="0 0 48 48" fill="none" xmlns="http://www.w3.org/2000/svg">
<path d="M32.5167 20.9083C33.4267 20.9083 34.1792 20.6108 34.7742 20.0158C35.3692 19.4208 35.6667 18.6683 35.6667 17.7583C35.6667 16.8483 35.3692 16.0958 34.7742 15.5008C34.1792 14.9058 33.4267 14.6083 32.5167 14.6083C31.6067 14.6083 30.8542 14.9058 30.2592 15.5008C29.6642 16.0958 29.3667 16.8483 29.3667 17.7583C29.3667 18.6683 29.6642 19.4208 30.2592 20.0158C30.8542 20.6108 31.6067 20.9083 32.5167 20.9083ZM15.4834 20.9083C16.3934 20.9083 17.1459 20.6108 17.7409 20.0158C18.3359 19.4208 18.6334 18.6683 18.6334 17.7583C18.6334 16.8483 18.3359 16.0958 17.7409 15.5008C17.1459 14.9058 16.3934 14.6083 15.4834 14.6083C14.5734 14.6083 13.8209 14.9058 13.2259 15.5008C12.6309 16.0958 12.3334 16.8483 12.3334 17.7583C12.3334 18.6683 12.6309 19.4208 13.2259 20.0158C13.8209 20.6108 14.5734 20.9083 15.4834 20.9083ZM24.0001 36.775C26.2167 36.775 28.2779 36.2694 30.1834 35.2583C32.089 34.2472 33.6056 32.8667 34.7334 31.1167C35.0445 30.65 35.0834 30.1931 34.8501 29.7458C34.6167 29.2986 34.2201 29.075 33.6601 29.075C33.4423 29.075 33.1973 29.1528 32.9251 29.3083C32.6529 29.4639 32.439 29.6389 32.2834 29.8333C31.3501 31.1556 30.1542 32.1667 28.6959 32.8667C27.2376 33.5667 25.682 33.9167 24.0292 33.9167C22.3765 33.9167 20.8112 33.5764 19.3334 32.8958C17.8556 32.2153 16.6695 31.2139 15.7751 29.8917C15.6359 29.6583 15.4358 29.4639 15.1749 29.3083C14.9139 29.1528 14.6473 29.075 14.3751 29.075C13.8695 29.075 13.4904 29.2986 13.2376 29.7458C12.9848 30.1931 13.0529 30.7083 13.4417 31.2917C14.4917 32.925 15.9598 34.2472 17.8459 35.2583C19.732 36.2694 21.7834 36.775 24.0001 36.775ZM24.0156 47.3333C20.7982 47.3333 17.7746 46.7208 14.9448 45.4958C12.115 44.2708 9.64036 42.5986 7.52091 40.4792C5.40147 38.3597 3.72925 35.8837 2.50425 33.0509C1.27925 30.2183 0.666748 27.1916 0.666748 23.9708C0.666748 20.7501 1.27925 17.7234 2.50425 14.8907C3.72925 12.058 5.40147 9.59167 7.52091 7.49167C9.64036 5.39167 12.1164 3.72917 14.9491 2.50417C17.7818 1.27917 20.8085 0.666672 24.0292 0.666672C27.25 0.666672 30.2767 1.27917 33.1094 2.50417C35.9421 3.72917 38.4084 5.39167 40.5084 7.49167C42.6084 9.59167 44.2709 12.0611 45.4959 14.9C46.7209 17.7389 47.3334 20.7671 47.3334 23.9845C47.3334 27.2019 46.7209 30.2255 45.4959 33.0553C44.2709 35.8851 42.6084 38.3561 40.5084 40.4684C38.4084 42.5807 35.939 44.2529 33.1001 45.4851C30.2612 46.7173 27.233 47.3333 24.0156 47.3333Z" fill="#FFD554"/>
</svg>
