<svg width="48" height="38" viewBox="0 0 48 38" fill="current" xmlns="http://www.w3.org/2000/svg">
<path d="M4.16675 37.6667C3.23341 37.6667 2.41675 37.3167 1.71675 36.6167C1.01675 35.9167 0.666748 35.1 0.666748 34.1667V3.83337C0.666748 2.90004 1.01675 2.08337 1.71675 1.38337C2.41675 0.683374 3.23341 0.333374 4.16675 0.333374H43.8334C44.7667 0.333374 45.5834 0.683374 46.2834 1.38337C46.9834 2.08337 47.3334 2.90004 47.3334 3.83337V34.1667C47.3334 35.1 46.9834 35.9167 46.2834 36.6167C45.5834 37.3167 44.7667 37.6667 43.8334 37.6667H4.16675ZM4.16675 34.1667H31.0584V24.6584H4.16675V34.1667ZM34.5584 34.1667H43.8334V11.65H34.5584V34.1667ZM4.16675 21.1584H31.0584V11.65H4.16675V21.1584Z" fill="current"/>
</svg>
