<svg width="132" height="28" viewBox="0 0 132 28" fill="none" xmlns="http://www.w3.org/2000/svg">
<path d="M0.0065918 23.5121H17.366V27.1281H0.0065918V23.5121ZM125.545 11.9041L131.018 5.8401H126.939L122.454 10.8801V5.8401H119.204V18.5841H122.47V13.2161L127.266 18.5841H131.457L125.545 11.9041ZM19.278 12.7441C19.1903 15.1441 18.8876 15.6001 17.5651 15.6001V18.5921H18.0591C21.3812 18.5921 22.1699 16.8721 22.2894 13.0401L22.4328 8.8001H25.4999V18.5841H28.7503V5.8401H19.501L19.278 12.7441ZM5.16899 14.9361H12.0203L13.1596 18.5841H16.9597L11.8371 3.2561C11.3432 1.7761 10.7696 0.600098 8.80976 0.600098C6.84996 0.600098 6.25246 1.7761 5.72666 3.2561L0.357126 18.5841H3.92619L5.16899 14.9361ZM8.64246 4.6001H8.73009L11.0245 11.8641H6.19669L8.64246 4.6001ZM84.5728 7.6481H80.9479V4.0481H89.3607V0.848098H77.5382V18.5841H84.5728C88.4685 18.5841 90.7071 16.6321 90.7071 13.0641C90.7071 9.6801 88.4366 7.6481 84.5728 7.6481ZM84.4055 15.3761H80.9479V10.7681H84.4055C86.2059 10.7681 87.2177 11.5681 87.2177 13.0721C87.2177 14.5761 86.2059 15.3761 84.4055 15.3761ZM52.26 5.5441V0.824097H49.0175V5.5441C47.315 5.6005 45.7043 6.33314 44.5391 7.58106C43.3741 8.82906 42.7498 10.4903 42.8035 12.2001C42.7455 13.9134 43.3676 15.5796 44.5329 16.8323C45.6982 18.0851 47.3114 18.8217 49.0175 18.8801V23.6801H52.2679V18.8801C53.113 18.8522 53.9444 18.6572 54.7143 18.3062C55.4843 17.9552 56.1777 17.4551 56.755 16.8347C57.3322 16.2141 57.7818 15.4854 58.0782 14.6901C58.3745 13.8948 58.5117 13.0487 58.4819 12.2001C58.516 11.351 58.3813 10.5035 58.0858 9.7073C57.7903 8.91098 57.3397 8.18178 56.7606 7.56218C56.1814 6.94266 55.4851 6.44506 54.7124 6.09858C53.9397 5.7521 53.106 5.56362 52.26 5.5441ZM49.0255 15.8001C48.1652 15.7052 47.3766 15.2746 46.8297 14.6011C46.2827 13.9277 46.0213 13.0654 46.1017 12.2001C46.0316 11.337 46.2968 10.4801 46.8419 9.80906C47.3869 9.13794 48.1695 8.70474 49.0255 8.6001V15.8001ZM52.2759 15.8001V8.6001C53.1319 8.70474 53.9145 9.13794 54.4595 9.80906C55.0046 10.4801 55.2698 11.337 55.1997 12.2001C55.2759 13.0645 55.0129 13.9246 54.4667 14.5971C53.9206 15.2696 53.1345 15.7013 52.2759 15.8001ZM70.663 14.6721V10.3761C70.663 7.2401 68.6793 5.2801 65.3492 5.2801C62.0191 5.2801 60.0753 7.3601 59.9159 9.5281H63.2062C63.3177 9.0641 63.8116 8.2401 65.3412 8.2401C65.6272 8.20314 65.9172 8.23338 66.1889 8.32858C66.4613 8.42378 66.7075 8.58114 66.9083 8.78842C67.109 8.99562 67.2596 9.24698 67.3472 9.5225C67.4349 9.7981 67.4572 10.0903 67.4126 10.3761H64.2259C61.342 10.3761 59.6291 11.9041 59.6291 14.4321C59.6067 15.0354 59.7105 15.6367 59.9341 16.1971C60.1577 16.7575 60.496 17.2644 60.9271 17.6852C61.358 18.106 61.8723 18.4312 62.4365 18.6399C63.0006 18.8484 63.6021 18.9357 64.202 18.8961C64.8792 18.9319 65.5547 18.7995 66.169 18.5107C66.7832 18.2218 67.317 17.7855 67.7233 17.2401C67.9877 17.6893 68.3733 18.0539 68.8362 18.2918C69.2983 18.5297 69.8185 18.6311 70.3363 18.5841H71.4596V15.6401C70.9099 15.6401 70.663 15.3761 70.663 14.6721ZM67.4126 13.8721C67.4261 14.1872 67.3727 14.5016 67.2556 14.7945C67.1393 15.0874 66.9624 15.3522 66.737 15.5714C66.5107 15.7906 66.2415 15.9592 65.9459 16.0663C65.6503 16.1732 65.3356 16.2161 65.0226 16.1921C63.8515 16.1921 62.9273 15.7681 62.9273 14.4961C62.9273 13.2241 63.955 13.0401 64.8234 13.0401H67.4126V13.8721ZM36.8445 9.7121H34.5102V5.8401H31.2598V18.5841H36.9002C40.4295 18.5841 41.6802 16.2801 41.6802 14.1041C41.6962 11.2961 39.9435 9.7121 36.8445 9.7121ZM36.6055 15.8001H34.5102V12.6001H36.6055C37.7288 12.6001 38.4059 13.1121 38.4059 14.2001C38.4059 15.2881 37.7606 15.8001 36.6055 15.8001ZM103.111 14.6721V10.3761C103.111 7.2401 101.127 5.2801 97.7974 5.2801C94.4674 5.2801 92.5235 7.3601 92.3642 9.5281H95.6544C95.7659 9.0641 96.2599 8.2401 97.7895 8.2401C98.0755 8.20314 98.3654 8.23338 98.6371 8.32858C98.9096 8.42378 99.1557 8.58114 99.3565 8.78842C99.5573 8.99562 99.7078 9.24698 99.7955 9.5225C99.8831 9.7981 99.9054 10.0903 99.8608 10.3761H96.6741C93.7902 10.3761 92.0774 11.9041 92.0774 14.4321C92.0551 15.0354 92.1586 15.6367 92.3825 16.1971C92.6055 16.7575 92.9441 17.2644 93.3751 17.6852C93.8061 18.106 94.3208 18.4312 94.8848 18.6399C95.4488 18.8484 96.0503 18.9357 96.6502 18.8961C97.3338 18.9386 98.0173 18.8095 98.6395 18.5204C99.2609 18.2313 99.801 17.7913 100.211 17.2401C100.472 17.6815 100.85 18.0411 101.304 18.2785C101.757 18.5159 102.267 18.6218 102.777 18.5841H103.9V15.6401C103.334 15.6401 103.111 15.3761 103.111 14.6721ZM99.8767 13.8721C99.8887 14.1869 99.8345 14.5007 99.7174 14.793C99.6003 15.0853 99.4234 15.3495 99.198 15.5685C98.9725 15.7874 98.7032 15.9561 98.4085 16.0636C98.1137 16.1711 97.7998 16.2148 97.4867 16.1921C96.3156 16.1921 95.3915 15.7681 95.3915 14.4961C95.3915 13.2241 96.4192 13.0401 97.2876 13.0401H99.8767V13.8721ZM113.492 10.5841H109.007V5.8401H105.756V18.5921H109.007V13.5681H113.492V18.5841H116.742V5.8401H113.492V10.5841Z" fill="white"/>
</svg>
