<svg width="194" height="56" viewBox="0 0 194 56" fill="none" xmlns="http://www.w3.org/2000/svg">
<path fill-rule="evenodd" clip-rule="evenodd" d="M34.6499 25.2699V19.922L36.5085 17.9893V22.6233L38.126 24.3028L44.6322 17.5417L46.2359 19.2068C46.2221 17.9475 45.9797 14.2935 43.0022 11.2555C39.7962 8.03613 36.3201 9.49111 35.1347 10.723L28.6409 17.4712L30.2986 19.1938L26.9444 22.7068L23.5888 19.2212L25.2465 17.4999L18.7528 10.7518C17.5673 9.51989 14.0912 8.06348 10.8852 11.2828C7.90769 14.3209 7.66534 17.9749 7.65149 19.2356L9.25519 17.569L15.7614 24.3316L17.379 22.6521V18.018L19.2375 19.9494V25.2972L21.8508 27.9999L8.97129 41.384L14.0649 46.6613L26.9444 33.2917L39.8225 46.6757L44.9161 41.3969L32.0367 27.9999L34.6499 25.2699ZM62.8754 30.3386H72.589V33.5162H66.5135V36.7787H68.5341C69.894 36.7787 71.6459 36.9471 72.9657 38.2913C73.5322 38.8784 74.2329 39.9564 74.2329 41.692C74.2329 42.2158 74.1706 42.7181 74.0501 43.1872C73.8479 43.9701 73.4809 44.658 72.9657 45.192C72.6153 45.5561 72.2179 45.8353 71.7816 46.0468C71.5836 46.1418 71.3773 46.2238 71.1626 46.2944C71.0574 46.3289 70.9507 46.3606 70.8413 46.3893C70.0491 46.598 69.1656 46.6628 68.2239 46.6628H62.8754V30.3386ZM67.9413 43.6247C68.4399 43.6247 69.329 43.583 69.894 43.1067C70.0034 43.0088 70.1904 42.8159 70.3275 42.5094C70.4272 42.2892 70.5006 42.01 70.5006 41.6646C70.5006 41.5409 70.4909 41.4243 70.4743 41.3149C70.4563 41.1983 70.4286 41.0904 70.3954 40.9897C70.3427 40.8314 70.2735 40.6932 70.1959 40.5738C70.1225 40.4615 70.0408 40.3665 69.9591 40.2874C69.9231 40.2528 69.8871 40.2212 69.8511 40.1924L69.7999 40.1521C69.2348 39.7319 68.318 39.7189 67.9413 39.7189H66.4997V43.6391H67.9413V43.6247ZM87.4074 35.7425H84.013V36.9745C83.358 36.0491 82.4869 35.6461 81.7169 35.4821C81.3471 35.4029 81.0009 35.3784 80.7114 35.3784C79.2573 35.3784 77.9777 35.9239 77.0609 36.8766C76.0914 37.884 75.4308 39.4527 75.4308 41.2861C75.4308 42.7282 75.8615 44.1558 76.9667 45.3747C78.1258 46.6484 79.3916 47.0398 80.9012 47.0398C81.3457 47.0398 81.9066 46.9823 82.4702 46.7319C83.0145 46.4901 83.5629 46.0684 84.013 45.346V46.6628H87.4074V35.7425ZM78.9208 41.1883C78.9208 40.6486 79.0509 40.2111 79.2268 39.8657C79.3708 39.5851 79.544 39.3649 79.7018 39.2008C80.1464 38.7388 80.8195 38.4165 81.5479 38.4309C82.1669 38.4309 82.9217 38.6683 83.4327 39.1864C83.5269 39.2785 83.6142 39.3793 83.6931 39.4872C83.7831 39.6124 83.8621 39.7477 83.9299 39.8902C84.1155 40.2773 84.2152 40.7234 84.2152 41.1883C84.2152 42.1266 83.8371 42.8131 83.3926 43.2462C83.171 43.4765 82.9023 43.665 82.6032 43.796C82.3027 43.9284 81.9717 44.0018 81.6282 44.0018C80.8195 44.0018 80.0924 43.6665 79.6201 43.1484C79.3238 42.7987 78.9208 42.1683 78.9208 41.1883ZM89.4556 35.7425H92.85V39.5361H96.6501V35.7425H100.045V46.6628H96.6501V42.3784H92.85V46.6628H89.4556V35.7425ZM105.473 35.7425H102.079V46.6628H105.473V41.8186L109.057 46.6628H113.436L108.627 40.8112L113.126 35.7425H108.909L105.473 40.083V35.7425ZM68.4108 9.33856C69.7722 9.33856 71.2817 9.53428 72.5336 10.6827C73.8811 11.9002 74.0695 13.525 74.0695 14.6447C74.0695 16.7027 73.3147 17.8511 72.722 18.4944C71.47 19.8112 69.8262 19.9364 68.721 19.9364H66.5121V25.6628H62.8879V9.33856H68.4108ZM66.4983 16.8566H67.7918C67.9843 16.8566 68.2294 16.8523 68.4925 16.8135C68.9149 16.7516 69.3816 16.6019 69.7459 16.2407C70.0685 15.9039 70.3386 15.3312 70.3386 14.6303C70.3386 14.3166 70.2901 14.0273 70.2029 13.774C70.1004 13.4747 69.9425 13.2228 69.7459 13.0343C69.2057 12.5032 68.4247 12.4183 67.7239 12.4183H66.4983V16.8566ZM86.3161 14.7425H82.9217V15.9745C82.4564 15.3168 81.8817 14.9224 81.3125 14.6907C80.6948 14.4389 80.0827 14.3784 79.6201 14.3784C78.166 14.3784 76.8864 14.9239 75.9696 15.8766C75.0001 16.884 74.3395 18.4527 74.3395 20.2861C74.3395 21.2187 74.5196 22.1455 74.9461 23.0133C75.1788 23.4882 75.4848 23.9444 75.8754 24.3747C77.0345 25.6484 78.3003 26.0398 79.8099 26.0398C80.253 26.0398 80.8098 25.9837 81.3706 25.7362C81.9177 25.4944 82.4688 25.0727 82.9217 24.346V25.6628H86.3161V14.7425ZM77.8295 20.1883C77.8295 19.2082 78.2602 18.5649 78.6105 18.2008C79.0551 17.7388 79.742 17.4165 80.4566 17.4309C80.6394 17.4309 80.8333 17.4525 81.03 17.4942C81.1449 17.5187 81.2598 17.5503 81.3748 17.5906C81.7279 17.7144 82.0686 17.9101 82.3414 18.1864C82.6018 18.4426 82.804 18.7635 82.9369 19.1247C82.9937 19.2787 83.038 19.4399 83.0699 19.6054C83.0837 19.6774 83.0948 19.7508 83.1031 19.8256C83.1101 19.8846 83.1142 19.9451 83.117 20.0055C83.1211 20.0659 83.1239 20.1264 83.1239 20.1883C83.1239 21.1266 82.7458 21.8131 82.3013 22.2462C82.0686 22.488 81.7847 22.6837 81.4676 22.8161C81.3443 22.868 81.2155 22.9097 81.0826 22.9399L80.9358 22.9701L80.7987 22.9874C80.7128 22.9975 80.6256 23.0018 80.5369 23.0018C80.1838 23.0018 79.8459 22.937 79.537 22.8219C79.141 22.6737 78.7947 22.4405 78.5288 22.1484C78.2325 21.7987 77.8295 21.1683 77.8295 20.1883ZM91.7587 14.7425V20.987L96.2319 14.7425H99.3853V25.6628H95.9895V19.3205L91.5163 25.6628H88.3643V14.7425H91.7587ZM98.1458 10.333C97.8619 11.2138 97.2969 11.9708 96.6363 12.4183C95.7472 13.0343 94.6559 13.1048 93.8748 13.1048C93.0937 13.1048 92.0149 13.0343 91.1133 12.4183C91.0358 12.3665 90.9596 12.3118 90.8848 12.2514C90.8004 12.1837 90.7173 12.1104 90.6369 12.0312C90.5511 11.9463 90.468 11.8571 90.3877 11.7621C90.0511 11.3591 89.7755 10.8669 89.6038 10.333L91.9609 9.38029C92.0551 9.8696 92.285 10.2625 92.5675 10.4999C92.8777 10.7662 93.2682 10.9346 93.861 10.9346C94.0064 10.9346 94.1393 10.9245 94.2626 10.9058L94.3332 10.8943L94.4025 10.8799L94.4952 10.8554L94.588 10.8266C94.8096 10.7504 94.9924 10.6381 95.1545 10.4999C95.437 10.2625 95.6669 9.8696 95.761 9.38029L98.1458 10.333ZM106.889 25.8312V31.1085H110.311V25.8312H110.445C112.83 25.8312 114.15 24.8079 114.756 24.192C115.068 23.8739 115.378 23.4681 115.636 22.9629C115.68 22.8766 115.723 22.7874 115.763 22.6953L115.835 22.5254C115.925 22.2995 116.004 22.0577 116.069 21.7972C116.149 21.4792 116.208 21.1352 116.239 20.7625C116.248 20.6574 116.255 20.5509 116.259 20.4416C116.263 20.3437 116.264 20.2458 116.264 20.1465C116.264 19.4385 116.162 18.8153 115.994 18.2713C115.846 17.7878 115.645 17.3675 115.417 17.0063C115.363 16.92 115.306 16.8365 115.248 16.7559L115.198 16.6883L115.112 16.5775C114.897 16.3055 114.67 16.0766 114.446 15.891C113.409 15.0361 111.847 14.5742 110.459 14.5742H110.297V9.33856H106.902V14.5742H106.74C105.339 14.5742 103.789 15.0361 102.752 15.891C101.877 16.6192 100.934 17.9907 100.934 20.1465C100.934 22.134 101.688 23.4364 102.443 24.192C103.048 24.8079 104.37 25.8312 106.753 25.8312H106.889ZM106.2 17.4913C106.477 17.428 106.767 17.4021 107.051 17.4165V22.9888C106.188 23.0162 105.379 22.6809 104.935 22.1628C104.53 21.7282 104.248 21.0143 104.248 20.1609C104.248 19.2931 104.53 18.5923 104.935 18.172C105.246 17.8396 105.703 17.605 106.2 17.4913ZM112.237 22.1772C111.793 22.6809 110.998 23.0306 110.122 23.0032V17.4309C110.668 17.392 111.228 17.5187 111.686 17.7705C111.894 17.8856 112.082 18.0252 112.237 18.1864C112.421 18.3778 112.581 18.6297 112.7 18.9276C112.841 19.2859 112.924 19.709 112.924 20.1739C112.924 21.0287 112.641 21.7425 112.237 22.1772ZM123.218 31.1085V25.8312H123.082C122.315 25.8312 121.659 25.7247 121.099 25.5606C120.793 25.4714 120.517 25.3634 120.269 25.2469C119.56 24.913 119.076 24.5014 118.772 24.192C118.669 24.0884 118.565 23.9747 118.464 23.8495C118.375 23.7415 118.288 23.6249 118.205 23.5012C118.009 23.2105 117.828 22.8752 117.678 22.4923C117.511 22.0649 117.383 21.5785 117.315 21.0287C117.295 20.8632 117.279 20.6905 117.271 20.5135C117.266 20.3941 117.263 20.2717 117.263 20.1465C117.263 17.9907 118.206 16.6192 119.081 15.891C120.119 15.0361 121.668 14.5742 123.07 14.5742H123.232V9.33856H126.626V14.5742H126.788C127.219 14.5742 127.666 14.6188 128.109 14.7051C128.334 14.7483 128.557 14.803 128.777 14.8692C128.971 14.9268 129.16 14.993 129.346 15.0664C129.875 15.2779 130.365 15.5542 130.775 15.891C131.652 16.6192 132.594 17.9907 132.594 20.1465C132.594 20.9381 132.475 21.6173 132.283 22.1988C132.112 22.7197 131.882 23.1615 131.628 23.5314C131.454 23.7847 131.27 24.0034 131.085 24.192C130.698 24.5863 130.016 25.1476 128.95 25.5002C128.666 25.5937 128.354 25.6728 128.015 25.7304C127.638 25.7952 127.226 25.8312 126.774 25.8312H126.64V31.1085H123.218ZM123.38 17.4165C122.585 17.3747 121.749 17.6539 121.264 18.172C120.859 18.5923 120.577 19.2931 120.577 20.1609C120.577 21.0143 120.859 21.7282 121.264 22.1628C121.708 22.6809 122.517 23.0162 123.38 22.9888V17.4165ZM126.45 23.0032C127.327 23.0306 128.122 22.6809 128.566 22.1772C128.781 21.9469 128.961 21.6375 129.083 21.2705C129.191 20.9453 129.253 20.5754 129.253 20.1739C129.253 19.3205 128.971 18.6066 128.566 18.1864C128.068 17.6683 127.245 17.3747 126.45 17.4309V23.0032ZM145.553 14.7425H142.159V15.9745C141.188 14.6029 139.747 14.3784 138.857 14.3784C137.403 14.3784 136.124 14.9239 135.207 15.8766C134.237 16.884 133.577 18.4527 133.577 20.2861C133.577 21.2043 133.751 22.1167 134.163 22.973C134.398 23.4623 134.711 23.9315 135.113 24.3747C136.272 25.6484 137.538 26.0398 139.047 26.0398C139.922 26.0398 141.242 25.8168 142.159 24.346V25.6628H145.553V14.7425ZM137.067 20.1883C137.067 19.7335 137.16 19.3521 137.294 19.037C137.449 18.6714 137.66 18.3965 137.848 18.2008C138.292 17.7388 138.979 17.4165 139.694 17.4309C140.313 17.4309 141.068 17.6683 141.579 18.1864C142.077 18.6757 142.361 19.4039 142.361 20.1883C142.361 21.1266 141.983 21.8131 141.539 22.2462C141.094 22.7082 140.461 23.0018 139.774 23.0018C138.965 23.0018 138.238 22.6665 137.766 22.1484C137.624 21.98 137.456 21.7454 137.32 21.4389C137.175 21.1093 137.067 20.6948 137.067 20.1883ZM150.996 14.7425V20.987L155.469 14.7425H158.623V25.6628H155.227V19.3205L150.754 25.6628H147.602V14.7425H150.996ZM157.383 10.333C157.252 10.7417 157.059 11.1231 156.825 11.4599C156.662 11.6959 156.477 11.9089 156.278 12.0945C156.149 12.2154 156.014 12.3233 155.874 12.4183C155.648 12.5738 155.41 12.6946 155.166 12.7896C154.886 12.8976 154.601 12.9695 154.321 13.017C153.886 13.0904 153.467 13.1048 153.112 13.1048C152.331 13.1048 151.252 13.0343 150.351 12.4183C149.69 11.9837 149.124 11.2138 148.841 10.333L151.198 9.38029C151.292 9.8696 151.522 10.2625 151.805 10.4999C151.96 10.6323 152.134 10.7403 152.345 10.8151C152.555 10.8914 152.802 10.9346 153.098 10.9346C153.691 10.9346 154.082 10.7662 154.392 10.4999C154.536 10.3791 154.666 10.2179 154.773 10.0236C154.874 9.8365 154.953 9.62063 154.998 9.38029L157.383 10.333ZM162.071 14.7699C161.505 14.9944 160.778 15.3858 160.333 15.6809L161.653 18.0468C161.991 17.7518 162.341 17.5287 162.786 17.333C163.23 17.1358 163.633 17.038 164.173 17.038C164.738 17.038 165.075 17.1646 165.237 17.2351C165.481 17.3488 165.615 17.5057 165.684 17.6554C165.733 17.7633 165.749 17.8669 165.749 17.949C165.749 18.1591 165.655 18.48 165.251 18.6757C165.141 18.729 164.996 18.7678 164.839 18.7966C164.535 18.8542 164.189 18.8729 163.984 18.8729H163.014V21.2662H164.28C164.658 21.2662 165.223 21.3367 165.507 21.4619C165.64 21.5224 165.751 21.5986 165.834 21.6951C165.943 21.8217 166.005 21.9829 166.005 22.1901C166.005 22.3499 165.975 22.5585 165.835 22.7499C165.765 22.8449 165.668 22.937 165.533 23.0162C165.197 23.2119 164.684 23.2824 164.308 23.2824C163.95 23.2824 163.56 23.2234 163.208 23.1299C163.016 23.0781 162.835 23.0162 162.678 22.9471C162.259 22.7499 161.761 22.4002 161.384 22.0649L159.942 24.3891C160.075 24.4999 160.294 24.6784 160.585 24.8741C160.721 24.9648 160.87 25.0598 161.034 25.1533C161.272 25.2886 161.539 25.421 161.829 25.5361C162.772 25.9002 163.755 26.0269 164.698 26.0269C166.45 26.0269 167.676 25.7606 168.565 24.8511C168.914 24.487 169.145 24.0984 169.288 23.7055C169.425 23.3256 169.48 22.9399 169.48 22.5686C169.48 22.4722 169.477 22.3772 169.469 22.2851C169.464 22.2261 169.458 22.1671 169.45 22.1095L169.43 21.9886C169.344 21.5339 169.144 21.1309 168.781 20.7625C168.633 20.6085 168.147 20.1739 167.365 19.9782C167.446 19.9479 167.525 19.9105 167.602 19.8688C167.667 19.8342 167.73 19.7954 167.792 19.7536L167.872 19.6975C167.928 19.6572 167.982 19.6141 168.034 19.5694C168.112 19.5047 168.185 19.4342 168.255 19.3622C168.767 18.8024 168.887 18.1864 168.887 17.4999C168.887 17.2913 168.872 17.0855 168.836 16.8854C168.817 16.7761 168.791 16.6681 168.757 16.5616C168.641 16.1831 168.436 15.8262 168.106 15.4981C167.043 14.4202 165.116 14.3784 164.55 14.3784C163.741 14.3784 162.866 14.4763 162.071 14.7699ZM181.767 20.8186H173.926C173.926 21.0215 173.952 21.2489 174.003 21.4792C174.1 21.9138 174.287 22.3599 174.56 22.6794C174.694 22.8349 174.844 22.9572 175 23.0507C175.11 23.1169 175.223 23.1702 175.337 23.2119C175.673 23.3371 176.015 23.3659 176.297 23.3659C176.485 23.3659 176.675 23.3515 176.857 23.3227C177.158 23.2738 177.439 23.1831 177.658 23.0435C177.698 23.0162 178.103 22.7499 178.385 22.134L181.592 22.4708C181.12 24.0106 180.177 24.8223 179.57 25.2138C178.561 25.8441 177.429 26.0254 176.244 26.0254C174.667 26.0254 173.279 25.7319 172.053 24.4582C171.138 23.5055 170.477 22.0635 170.477 20.2444C170.477 18.6757 171.016 17.0668 172.081 15.9327C172.711 15.2765 173.423 14.885 174.122 14.6576C174.827 14.4274 175.52 14.3641 176.108 14.3641C177.281 14.3641 178.978 14.5886 180.285 16.0018C181.538 17.3747 181.767 19.0816 181.767 20.4401V20.8186ZM178.641 18.7175C178.615 18.6196 178.453 17.9346 177.954 17.4438C177.816 17.31 177.655 17.192 177.474 17.0955C177.356 17.0322 177.23 16.979 177.094 16.9372C176.87 16.8667 176.622 16.8279 176.351 16.8279C176.058 16.8279 175.808 16.8682 175.59 16.9344C175.154 17.0682 174.851 17.3085 174.626 17.5417C174.37 17.8367 174.128 18.2282 174.034 18.7175H178.641ZM186.697 14.7425H183.303V25.6628H186.697V21.3784H190.497V25.6628H193.892V14.7425H190.497V18.5361H186.697V14.7425Z" fill="#2B2D34"/>
</svg>
