<svg width="133" height="34" viewBox="0 0 133 34" fill="none" xmlns="http://www.w3.org/2000/svg">
<path d="M36.1443 28.961H27.6303V25.2821H36.1255V28.961H36.1443ZM37.8584 23.4331H25.9351V32.6399H27.6303V30.7908H37.8207V23.4331H37.8584ZM27.6303 6.88779L31.0397 3.20893V16.0946H27.6303V6.88779ZM25.9351 17.9244H32.7161V1.35986H30.1921L25.9351 5.96326V17.9244ZM36.1443 3.20893H39.5537V16.0946H36.1443V3.20893ZM34.4491 17.9244H41.2301V1.35986H34.4491V17.9244ZM53.1157 17.9244H54.811V1.35986H52.2492V1.37913L49.6875 4.13346V1.35986H47.1258L42.9065 5.96326V17.9244H44.6017V6.88779L48.0111 3.20893V17.9244H49.7063V6.88779L53.1157 3.20893V17.9244ZM25.9351 21.6033H54.8298V19.7542H25.9351V21.6033ZM48.03 25.2821H53.1157V28.961H48.03V25.2821ZM46.3347 28.961H41.2301V25.2821H46.3347V28.961ZM48.03 30.7908H54.8298V23.4331H39.5537V30.7908H46.3347V32.6399H48.03V30.7908ZM80.108 17.6162H81.5962C82.2552 17.6162 82.6509 18.0977 82.6509 18.7526C82.6509 19.446 82.2552 19.889 81.5962 19.889H80.108V17.6162ZM80.108 16.1716V14.5152H83.6491V13.0706H78.5824V21.3529H81.6528C83.1783 21.3529 84.1392 20.2743 84.1392 18.7719C84.1392 17.2696 83.1969 16.1909 81.6528 16.1909C81.6714 16.1716 80.108 16.1716 80.108 16.1716ZM89.658 18.5215H87.7555L88.735 15.5168L89.658 18.5215ZM90.5245 21.3529H92.0879L89.3189 13.0706H88.1511L85.3821 21.3529H86.9455L87.4163 19.889H90.1102L90.5245 21.3529ZM97.7198 21.3529H99.2081V13.0706H97.7198V16.4606H95.1389V13.0706H93.6513V21.3529H95.1389V17.8859H97.7198V21.3529ZM104.689 16.9421L107.251 13.0706H105.48L103.032 16.9999V13.0706H101.544V21.3529H103.032V17.0191L105.706 21.3529H107.533L104.689 16.9421Z" fill="#384249"/>
<path d="M68.0341 4.88477H66.7155V29.1152H68.0341V4.88477Z" fill="#99C45A"/>
</svg>
