<svg width="42" height="42" viewBox="0 0 42 42" fill="none" xmlns="http://www.w3.org/2000/svg">
<rect width="42" height="42" rx="21" fill="#FFF200"/>
<path d="M14.3471 31.0044L21.2267 24.024L28.3364 31.1489L31.3159 28.1988L24.2784 21.1596L25.6308 19.8509V17.0587L26.4809 16.3397V18.527L27.5745 19.4191L30.8421 16.1515L31.8921 16.9579C32.5112 14.6697 28.927 9.47349 25.9618 12.3522L22.5077 15.7777L23.2133 16.6261L21.4577 18.3397L19.7592 16.6698L20.6513 15.8634L16.8662 12.2077C14.0161 9.86157 11.0954 13.4316 10.9946 16.9142L12.0295 16.0515L15.2097 19.4762L16.3471 18.527V16.4253L17.0527 16.9571V19.7064L18.4337 21.089L11.4113 28.0106L14.3471 31.0052V31.0044Z" fill="#25252D"/>
</svg>
