<svg width="402" height="401" viewBox="0 0 402 401" fill="none" xmlns="http://www.w3.org/2000/svg">
<path d="M181 100L191 90L201 100" stroke="#ECECEC"/>
<path d="M161 100L171 90L181 100" stroke="#ECECEC"/>
<path d="M141 100L151 90L161 100" stroke="#ECECEC"/>
<path d="M121 100L131 90L141 100" stroke="#ECECEC"/>
<path d="M101 100L111 90L121 100" stroke="#ECECEC"/>
<path d="M181 85L191 75L201 85" stroke="#ECECEC"/>
<path d="M161 85L171 75L181 85" stroke="#ECECEC"/>
<path d="M141 85L151 75L161 85" stroke="#ECECEC"/>
<path d="M121 85L131 75L141 85" stroke="#ECECEC"/>
<path d="M101 85L111 75L121 85" stroke="#ECECEC"/>
<path d="M181 70L191 60L201 70" stroke="#ECECEC"/>
<path d="M161 70L171 60L181 70" stroke="#ECECEC"/>
<path d="M141 70L151 60L161 70" stroke="#ECECEC"/>
<path d="M121 70L131 60L141 70" stroke="#ECECEC"/>
<path d="M101 70L111 60L121 70" stroke="#ECECEC"/>
<path d="M181 55L191 45L201 55" stroke="#ECECEC"/>
<path d="M161 55L171 45L181 55" stroke="#ECECEC"/>
<path d="M141 55L151 45L161 55" stroke="#ECECEC"/>
<path d="M121 55L131 45L141 55" stroke="#ECECEC"/>
<path d="M101 55L111 45L121 55" stroke="#ECECEC"/>
<path d="M181 40L191 30L201 40" stroke="#ECECEC"/>
<path d="M161 40L171 30L181 40" stroke="#ECECEC"/>
<path d="M141 40L151 30L161 40" stroke="#ECECEC"/>
<path d="M121 40L131 30L141 40" stroke="#ECECEC"/>
<path d="M101 40L111 30L121 40" stroke="#ECECEC"/>
<path d="M181 25L191 15L201 25" stroke="#ECECEC"/>
<path d="M161 25L171 15L181 25" stroke="#ECECEC"/>
<path d="M141 25L151 15L161 25" stroke="#ECECEC"/>
<path d="M121 25L131 15L141 25" stroke="#ECECEC"/>
<path d="M101 25L111 15L121 25" stroke="#ECECEC"/>
<path d="M181 10L191 0L201 10" stroke="#ECECEC"/>
<path d="M161 10L171 0L181 10" stroke="#ECECEC"/>
<path d="M141 10L151 0L161 10" stroke="#ECECEC"/>
<path d="M121 10L131 0L141 10" stroke="#ECECEC"/>
<path d="M101 10L111 0L121 10" stroke="#ECECEC"/>
<path d="M181 205L191 195L201 205" stroke="#ECECEC"/>
<path d="M161 205L171 195L181 205" stroke="#ECECEC"/>
<path d="M141 205L151 195L161 205" stroke="#ECECEC"/>
<path d="M121 205L131 195L141 205" stroke="#ECECEC"/>
<path d="M101 205L111 195L121 205" stroke="#ECECEC"/>
<path d="M181 190L191 180L201 190" stroke="#ECECEC"/>
<path d="M161 190L171 180L181 190" stroke="#ECECEC"/>
<path d="M141 190L151 180L161 190" stroke="#ECECEC"/>
<path d="M121 190L131 180L141 190" stroke="#ECECEC"/>
<path d="M101 190L111 180L121 190" stroke="#ECECEC"/>
<path d="M181 175L191 165L201 175" stroke="#ECECEC"/>
<path d="M161 175L171 165L181 175" stroke="#ECECEC"/>
<path d="M141 175L151 165L161 175" stroke="#ECECEC"/>
<path d="M121 175L131 165L141 175" stroke="#ECECEC"/>
<path d="M101 175L111 165L121 175" stroke="#ECECEC"/>
<path d="M181 160L191 150L201 160" stroke="#ECECEC"/>
<path d="M161 160L171 150L181 160" stroke="#ECECEC"/>
<path d="M141 160L151 150L161 160" stroke="#ECECEC"/>
<path d="M121 160L131 150L141 160" stroke="#ECECEC"/>
<path d="M101 160L111 150L121 160" stroke="#ECECEC"/>
<path d="M181 145L191 135L201 145" stroke="#ECECEC"/>
<path d="M161 145L171 135L181 145" stroke="#ECECEC"/>
<path d="M141 145L151 135L161 145" stroke="#ECECEC"/>
<path d="M121 145L131 135L141 145" stroke="#ECECEC"/>
<path d="M101 145L111 135L121 145" stroke="#ECECEC"/>
<path d="M181 130L191 120L201 130" stroke="#ECECEC"/>
<path d="M161 130L171 120L181 130" stroke="#ECECEC"/>
<path d="M141 130L151 120L161 130" stroke="#ECECEC"/>
<path d="M121 130L131 120L141 130" stroke="#ECECEC"/>
<path d="M101 130L111 120L121 130" stroke="#ECECEC"/>
<path d="M181 115L191 105L201 115" stroke="#ECECEC"/>
<path d="M161 115L171 105L181 115" stroke="#ECECEC"/>
<path d="M141 115L151 105L161 115" stroke="#ECECEC"/>
<path d="M121 115L131 105L141 115" stroke="#ECECEC"/>
<path d="M101 115L111 105L121 115" stroke="#ECECEC"/>
<path d="M181 100L191 90L201 100" stroke="#ECECEC"/>
<path d="M161 100L171 90L181 100" stroke="#ECECEC"/>
<path d="M141 100L151 90L161 100" stroke="#ECECEC"/>
<path d="M121 100L131 90L141 100" stroke="#ECECEC"/>
<path d="M101 100L111 90L121 100" stroke="#ECECEC"/>
<path d="M181 85L191 75L201 85" stroke="#ECECEC"/>
<path d="M161 85L171 75L181 85" stroke="#ECECEC"/>
<path d="M141 85L151 75L161 85" stroke="#ECECEC"/>
<path d="M121 85L131 75L141 85" stroke="#ECECEC"/>
<path d="M101 85L111 75L121 85" stroke="#ECECEC"/>
<path d="M181 70L191 60L201 70" stroke="#ECECEC"/>
<path d="M161 70L171 60L181 70" stroke="#ECECEC"/>
<path d="M141 70L151 60L161 70" stroke="#ECECEC"/>
<path d="M121 70L131 60L141 70" stroke="#ECECEC"/>
<path d="M101 70L111 60L121 70" stroke="#ECECEC"/>
<path d="M181 55L191 45L201 55" stroke="#ECECEC"/>
<path d="M161 55L171 45L181 55" stroke="#ECECEC"/>
<path d="M141 55L151 45L161 55" stroke="#ECECEC"/>
<path d="M121 55L131 45L141 55" stroke="#ECECEC"/>
<path d="M101 55L111 45L121 55" stroke="#ECECEC"/>
<path d="M181 40L191 30L201 40" stroke="#ECECEC"/>
<path d="M161 40L171 30L181 40" stroke="#ECECEC"/>
<path d="M141 40L151 30L161 40" stroke="#ECECEC"/>
<path d="M121 40L131 30L141 40" stroke="#ECECEC"/>
<path d="M101 40L111 30L121 40" stroke="#ECECEC"/>
<path d="M181 25L191 15L201 25" stroke="#ECECEC"/>
<path d="M161 25L171 15L181 25" stroke="#ECECEC"/>
<path d="M141 25L151 15L161 25" stroke="#ECECEC"/>
<path d="M121 25L131 15L141 25" stroke="#ECECEC"/>
<path d="M101 25L111 15L121 25" stroke="#ECECEC"/>
<path d="M181 10L191 0L201 10" stroke="#ECECEC"/>
<path d="M161 10L171 0L181 10" stroke="#ECECEC"/>
<path d="M141 10L151 0L161 10" stroke="#ECECEC"/>
<path d="M121 10L131 0L141 10" stroke="#ECECEC"/>
<path d="M101 10L111 0L121 10" stroke="#ECECEC"/>
<path d="M181 205L191 195L201 205" stroke="#ECECEC"/>
<path d="M161 205L171 195L181 205" stroke="#ECECEC"/>
<path d="M141 205L151 195L161 205" stroke="#ECECEC"/>
<path d="M121 205L131 195L141 205" stroke="#ECECEC"/>
<path d="M101 205L111 195L121 205" stroke="#ECECEC"/>
<path d="M181 190L191 180L201 190" stroke="#ECECEC"/>
<path d="M161 190L171 180L181 190" stroke="#ECECEC"/>
<path d="M141 190L151 180L161 190" stroke="#ECECEC"/>
<path d="M121 190L131 180L141 190" stroke="#ECECEC"/>
<path d="M101 190L111 180L121 190" stroke="#ECECEC"/>
<path d="M181 175L191 165L201 175" stroke="#ECECEC"/>
<path d="M161 175L171 165L181 175" stroke="#ECECEC"/>
<path d="M141 175L151 165L161 175" stroke="#ECECEC"/>
<path d="M121 175L131 165L141 175" stroke="#ECECEC"/>
<path d="M101 175L111 165L121 175" stroke="#ECECEC"/>
<path d="M181 160L191 150L201 160" stroke="#ECECEC"/>
<path d="M161 160L171 150L181 160" stroke="#ECECEC"/>
<path d="M141 160L151 150L161 160" stroke="#ECECEC"/>
<path d="M121 160L131 150L141 160" stroke="#ECECEC"/>
<path d="M101 160L111 150L121 160" stroke="#ECECEC"/>
<path d="M181 145L191 135L201 145" stroke="#ECECEC"/>
<path d="M161 145L171 135L181 145" stroke="#ECECEC"/>
<path d="M141 145L151 135L161 145" stroke="#ECECEC"/>
<path d="M121 145L131 135L141 145" stroke="#ECECEC"/>
<path d="M101 145L111 135L121 145" stroke="#ECECEC"/>
<path d="M181 130L191 120L201 130" stroke="#ECECEC"/>
<path d="M161 130L171 120L181 130" stroke="#ECECEC"/>
<path d="M141 130L151 120L161 130" stroke="#ECECEC"/>
<path d="M121 130L131 120L141 130" stroke="#ECECEC"/>
<path d="M101 130L111 120L121 130" stroke="#ECECEC"/>
<path d="M181 115L191 105L201 115" stroke="#ECECEC"/>
<path d="M161 115L171 105L181 115" stroke="#ECECEC"/>
<path d="M141 115L151 105L161 115" stroke="#ECECEC"/>
<path d="M121 115L131 105L141 115" stroke="#ECECEC"/>
<path d="M101 115L111 105L121 115" stroke="#ECECEC"/>
<path d="M81 100L91 90L101 100" stroke="#ECECEC"/>
<path d="M61 100L71 90L81 100" stroke="#ECECEC"/>
<path d="M41 100L51 90L61 100" stroke="#ECECEC"/>
<path d="M21 100L31 90L41 100" stroke="#ECECEC"/>
<path d="M1 100L11 90L21 100" stroke="#ECECEC"/>
<path d="M81 85L91 75L101 85" stroke="#ECECEC"/>
<path d="M61 85L71 75L81 85" stroke="#ECECEC"/>
<path d="M41 85L51 75L61 85" stroke="#ECECEC"/>
<path d="M21 85L31 75L41 85" stroke="#ECECEC"/>
<path d="M1 85L11 75L21 85" stroke="#ECECEC"/>
<path d="M81 70L91 60L101 70" stroke="#ECECEC"/>
<path d="M61 70L71 60L81 70" stroke="#ECECEC"/>
<path d="M41 70L51 60L61 70" stroke="#ECECEC"/>
<path d="M21 70L31 60L41 70" stroke="#ECECEC"/>
<path d="M1 70L11 60L21 70" stroke="#ECECEC"/>
<path d="M81 55L91 45L101 55" stroke="#ECECEC"/>
<path d="M61 55L71 45L81 55" stroke="#ECECEC"/>
<path d="M41 55L51 45L61 55" stroke="#ECECEC"/>
<path d="M21 55L31 45L41 55" stroke="#ECECEC"/>
<path d="M1 55L11 45L21 55" stroke="#ECECEC"/>
<path d="M81 40L91 30L101 40" stroke="#ECECEC"/>
<path d="M61 40L71 30L81 40" stroke="#ECECEC"/>
<path d="M41 40L51 30L61 40" stroke="#ECECEC"/>
<path d="M21 40L31 30L41 40" stroke="#ECECEC"/>
<path d="M1 40L11 30L21 40" stroke="#ECECEC"/>
<path d="M81 25L91 15L101 25" stroke="#ECECEC"/>
<path d="M61 25L71 15L81 25" stroke="#ECECEC"/>
<path d="M41 25L51 15L61 25" stroke="#ECECEC"/>
<path d="M21 25L31 15L41 25" stroke="#ECECEC"/>
<path d="M1 25L11 15L21 25" stroke="#ECECEC"/>
<path d="M81 10L91 0L101 10" stroke="#ECECEC"/>
<path d="M61 10L71 0L81 10" stroke="#ECECEC"/>
<path d="M41 10L51 0L61 10" stroke="#ECECEC"/>
<path d="M21 10L31 0L41 10" stroke="#ECECEC"/>
<path d="M1 10L11 0L21 10" stroke="#ECECEC"/>
<path d="M81 205L91 195L101 205" stroke="#ECECEC"/>
<path d="M61 205L71 195L81 205" stroke="#ECECEC"/>
<path d="M41 205L51 195L61 205" stroke="#ECECEC"/>
<path d="M21 205L31 195L41 205" stroke="#ECECEC"/>
<path d="M1 205L11 195L21 205" stroke="#ECECEC"/>
<path d="M81 190L91 180L101 190" stroke="#ECECEC"/>
<path d="M61 190L71 180L81 190" stroke="#ECECEC"/>
<path d="M41 190L51 180L61 190" stroke="#ECECEC"/>
<path d="M21 190L31 180L41 190" stroke="#ECECEC"/>
<path d="M1 190L11 180L21 190" stroke="#ECECEC"/>
<path d="M81 175L91 165L101 175" stroke="#ECECEC"/>
<path d="M61 175L71 165L81 175" stroke="#ECECEC"/>
<path d="M41 175L51 165L61 175" stroke="#ECECEC"/>
<path d="M21 175L31 165L41 175" stroke="#ECECEC"/>
<path d="M1 175L11 165L21 175" stroke="#ECECEC"/>
<path d="M81 160L91 150L101 160" stroke="#ECECEC"/>
<path d="M61 160L71 150L81 160" stroke="#ECECEC"/>
<path d="M41 160L51 150L61 160" stroke="#ECECEC"/>
<path d="M21 160L31 150L41 160" stroke="#ECECEC"/>
<path d="M1 160L11 150L21 160" stroke="#ECECEC"/>
<path d="M81 145L91 135L101 145" stroke="#ECECEC"/>
<path d="M61 145L71 135L81 145" stroke="#ECECEC"/>
<path d="M41 145L51 135L61 145" stroke="#ECECEC"/>
<path d="M21 145L31 135L41 145" stroke="#ECECEC"/>
<path d="M1 145L11 135L21 145" stroke="#ECECEC"/>
<path d="M81 130L91 120L101 130" stroke="#ECECEC"/>
<path d="M61 130L71 120L81 130" stroke="#ECECEC"/>
<path d="M41 130L51 120L61 130" stroke="#ECECEC"/>
<path d="M21 130L31 120L41 130" stroke="#ECECEC"/>
<path d="M1 130L11 120L21 130" stroke="#ECECEC"/>
<path d="M81 115L91 105L101 115" stroke="#ECECEC"/>
<path d="M61 115L71 105L81 115" stroke="#ECECEC"/>
<path d="M41 115L51 105L61 115" stroke="#ECECEC"/>
<path d="M21 115L31 105L41 115" stroke="#ECECEC"/>
<path d="M1 115L11 105L21 115" stroke="#ECECEC"/>
<path d="M181 295L191 285L201 295" stroke="#ECECEC"/>
<path d="M161 295L171 285L181 295" stroke="#ECECEC"/>
<path d="M141 295L151 285L161 295" stroke="#ECECEC"/>
<path d="M121 295L131 285L141 295" stroke="#ECECEC"/>
<path d="M101 295L111 285L121 295" stroke="#ECECEC"/>
<path d="M181 280L191 270L201 280" stroke="#ECECEC"/>
<path d="M161 280L171 270L181 280" stroke="#ECECEC"/>
<path d="M141 280L151 270L161 280" stroke="#ECECEC"/>
<path d="M121 280L131 270L141 280" stroke="#ECECEC"/>
<path d="M101 280L111 270L121 280" stroke="#ECECEC"/>
<path d="M181 265L191 255L201 265" stroke="#ECECEC"/>
<path d="M161 265L171 255L181 265" stroke="#ECECEC"/>
<path d="M141 265L151 255L161 265" stroke="#ECECEC"/>
<path d="M121 265L131 255L141 265" stroke="#ECECEC"/>
<path d="M101 265L111 255L121 265" stroke="#ECECEC"/>
<path d="M181 250L191 240L201 250" stroke="#ECECEC"/>
<path d="M161 250L171 240L181 250" stroke="#ECECEC"/>
<path d="M141 250L151 240L161 250" stroke="#ECECEC"/>
<path d="M121 250L131 240L141 250" stroke="#ECECEC"/>
<path d="M101 250L111 240L121 250" stroke="#ECECEC"/>
<path d="M181 235L191 225L201 235" stroke="#ECECEC"/>
<path d="M161 235L171 225L181 235" stroke="#ECECEC"/>
<path d="M141 235L151 225L161 235" stroke="#ECECEC"/>
<path d="M121 235L131 225L141 235" stroke="#ECECEC"/>
<path d="M101 235L111 225L121 235" stroke="#ECECEC"/>
<path d="M181 220L191 210L201 220" stroke="#ECECEC"/>
<path d="M161 220L171 210L181 220" stroke="#ECECEC"/>
<path d="M141 220L151 210L161 220" stroke="#ECECEC"/>
<path d="M121 220L131 210L141 220" stroke="#ECECEC"/>
<path d="M101 220L111 210L121 220" stroke="#ECECEC"/>
<path d="M181 205L191 195L201 205" stroke="#ECECEC"/>
<path d="M161 205L171 195L181 205" stroke="#ECECEC"/>
<path d="M141 205L151 195L161 205" stroke="#ECECEC"/>
<path d="M121 205L131 195L141 205" stroke="#ECECEC"/>
<path d="M101 205L111 195L121 205" stroke="#ECECEC"/>
<path d="M181 400L191 390L201 400" stroke="#ECECEC"/>
<path d="M161 400L171 390L181 400" stroke="#ECECEC"/>
<path d="M141 400L151 390L161 400" stroke="#ECECEC"/>
<path d="M121 400L131 390L141 400" stroke="#ECECEC"/>
<path d="M101 400L111 390L121 400" stroke="#ECECEC"/>
<path d="M181 385L191 375L201 385" stroke="#ECECEC"/>
<path d="M161 385L171 375L181 385" stroke="#ECECEC"/>
<path d="M141 385L151 375L161 385" stroke="#ECECEC"/>
<path d="M121 385L131 375L141 385" stroke="#ECECEC"/>
<path d="M101 385L111 375L121 385" stroke="#ECECEC"/>
<path d="M181 370L191 360L201 370" stroke="#ECECEC"/>
<path d="M161 370L171 360L181 370" stroke="#ECECEC"/>
<path d="M141 370L151 360L161 370" stroke="#ECECEC"/>
<path d="M121 370L131 360L141 370" stroke="#ECECEC"/>
<path d="M101 370L111 360L121 370" stroke="#ECECEC"/>
<path d="M181 355L191 345L201 355" stroke="#ECECEC"/>
<path d="M161 355L171 345L181 355" stroke="#ECECEC"/>
<path d="M141 355L151 345L161 355" stroke="#ECECEC"/>
<path d="M121 355L131 345L141 355" stroke="#ECECEC"/>
<path d="M101 355L111 345L121 355" stroke="#ECECEC"/>
<path d="M181 340L191 330L201 340" stroke="#ECECEC"/>
<path d="M161 340L171 330L181 340" stroke="#ECECEC"/>
<path d="M141 340L151 330L161 340" stroke="#ECECEC"/>
<path d="M121 340L131 330L141 340" stroke="#ECECEC"/>
<path d="M101 340L111 330L121 340" stroke="#ECECEC"/>
<path d="M181 325L191 315L201 325" stroke="#ECECEC"/>
<path d="M161 325L171 315L181 325" stroke="#ECECEC"/>
<path d="M141 325L151 315L161 325" stroke="#ECECEC"/>
<path d="M121 325L131 315L141 325" stroke="#ECECEC"/>
<path d="M101 325L111 315L121 325" stroke="#ECECEC"/>
<path d="M181 310L191 300L201 310" stroke="#ECECEC"/>
<path d="M161 310L171 300L181 310" stroke="#ECECEC"/>
<path d="M141 310L151 300L161 310" stroke="#ECECEC"/>
<path d="M121 310L131 300L141 310" stroke="#ECECEC"/>
<path d="M101 310L111 300L121 310" stroke="#ECECEC"/>
<path d="M181 295L191 285L201 295" stroke="#ECECEC"/>
<path d="M161 295L171 285L181 295" stroke="#ECECEC"/>
<path d="M141 295L151 285L161 295" stroke="#ECECEC"/>
<path d="M121 295L131 285L141 295" stroke="#ECECEC"/>
<path d="M101 295L111 285L121 295" stroke="#ECECEC"/>
<path d="M181 280L191 270L201 280" stroke="#ECECEC"/>
<path d="M161 280L171 270L181 280" stroke="#ECECEC"/>
<path d="M141 280L151 270L161 280" stroke="#ECECEC"/>
<path d="M121 280L131 270L141 280" stroke="#ECECEC"/>
<path d="M101 280L111 270L121 280" stroke="#ECECEC"/>
<path d="M181 265L191 255L201 265" stroke="#ECECEC"/>
<path d="M161 265L171 255L181 265" stroke="#ECECEC"/>
<path d="M141 265L151 255L161 265" stroke="#ECECEC"/>
<path d="M121 265L131 255L141 265" stroke="#ECECEC"/>
<path d="M101 265L111 255L121 265" stroke="#ECECEC"/>
<path d="M181 250L191 240L201 250" stroke="#ECECEC"/>
<path d="M161 250L171 240L181 250" stroke="#ECECEC"/>
<path d="M141 250L151 240L161 250" stroke="#ECECEC"/>
<path d="M121 250L131 240L141 250" stroke="#ECECEC"/>
<path d="M101 250L111 240L121 250" stroke="#ECECEC"/>
<path d="M181 235L191 225L201 235" stroke="#ECECEC"/>
<path d="M161 235L171 225L181 235" stroke="#ECECEC"/>
<path d="M141 235L151 225L161 235" stroke="#ECECEC"/>
<path d="M121 235L131 225L141 235" stroke="#ECECEC"/>
<path d="M101 235L111 225L121 235" stroke="#ECECEC"/>
<path d="M181 220L191 210L201 220" stroke="#ECECEC"/>
<path d="M161 220L171 210L181 220" stroke="#ECECEC"/>
<path d="M141 220L151 210L161 220" stroke="#ECECEC"/>
<path d="M121 220L131 210L141 220" stroke="#ECECEC"/>
<path d="M101 220L111 210L121 220" stroke="#ECECEC"/>
<path d="M181 205L191 195L201 205" stroke="#ECECEC"/>
<path d="M161 205L171 195L181 205" stroke="#ECECEC"/>
<path d="M141 205L151 195L161 205" stroke="#ECECEC"/>
<path d="M121 205L131 195L141 205" stroke="#ECECEC"/>
<path d="M101 205L111 195L121 205" stroke="#ECECEC"/>
<path d="M181 400L191 390L201 400" stroke="#ECECEC"/>
<path d="M161 400L171 390L181 400" stroke="#ECECEC"/>
<path d="M141 400L151 390L161 400" stroke="#ECECEC"/>
<path d="M121 400L131 390L141 400" stroke="#ECECEC"/>
<path d="M101 400L111 390L121 400" stroke="#ECECEC"/>
<path d="M181 385L191 375L201 385" stroke="#ECECEC"/>
<path d="M161 385L171 375L181 385" stroke="#ECECEC"/>
<path d="M141 385L151 375L161 385" stroke="#ECECEC"/>
<path d="M121 385L131 375L141 385" stroke="#ECECEC"/>
<path d="M101 385L111 375L121 385" stroke="#ECECEC"/>
<path d="M181 370L191 360L201 370" stroke="#ECECEC"/>
<path d="M161 370L171 360L181 370" stroke="#ECECEC"/>
<path d="M141 370L151 360L161 370" stroke="#ECECEC"/>
<path d="M121 370L131 360L141 370" stroke="#ECECEC"/>
<path d="M101 370L111 360L121 370" stroke="#ECECEC"/>
<path d="M181 355L191 345L201 355" stroke="#ECECEC"/>
<path d="M161 355L171 345L181 355" stroke="#ECECEC"/>
<path d="M141 355L151 345L161 355" stroke="#ECECEC"/>
<path d="M121 355L131 345L141 355" stroke="#ECECEC"/>
<path d="M101 355L111 345L121 355" stroke="#ECECEC"/>
<path d="M181 340L191 330L201 340" stroke="#ECECEC"/>
<path d="M161 340L171 330L181 340" stroke="#ECECEC"/>
<path d="M141 340L151 330L161 340" stroke="#ECECEC"/>
<path d="M121 340L131 330L141 340" stroke="#ECECEC"/>
<path d="M101 340L111 330L121 340" stroke="#ECECEC"/>
<path d="M181 325L191 315L201 325" stroke="#ECECEC"/>
<path d="M161 325L171 315L181 325" stroke="#ECECEC"/>
<path d="M141 325L151 315L161 325" stroke="#ECECEC"/>
<path d="M121 325L131 315L141 325" stroke="#ECECEC"/>
<path d="M101 325L111 315L121 325" stroke="#ECECEC"/>
<path d="M181 310L191 300L201 310" stroke="#ECECEC"/>
<path d="M161 310L171 300L181 310" stroke="#ECECEC"/>
<path d="M141 310L151 300L161 310" stroke="#ECECEC"/>
<path d="M121 310L131 300L141 310" stroke="#ECECEC"/>
<path d="M101 310L111 300L121 310" stroke="#ECECEC"/>
<path d="M81 295L91 285L101 295" stroke="#ECECEC"/>
<path d="M61 295L71 285L81 295" stroke="#ECECEC"/>
<path d="M41 295L51 285L61 295" stroke="#ECECEC"/>
<path d="M21 295L31 285L41 295" stroke="#ECECEC"/>
<path d="M1 295L11 285L21 295" stroke="#ECECEC"/>
<path d="M81 280L91 270L101 280" stroke="#ECECEC"/>
<path d="M61 280L71 270L81 280" stroke="#ECECEC"/>
<path d="M41 280L51 270L61 280" stroke="#ECECEC"/>
<path d="M21 280L31 270L41 280" stroke="#ECECEC"/>
<path d="M1 280L11 270L21 280" stroke="#ECECEC"/>
<path d="M81 265L91 255L101 265" stroke="#ECECEC"/>
<path d="M61 265L71 255L81 265" stroke="#ECECEC"/>
<path d="M41 265L51 255L61 265" stroke="#ECECEC"/>
<path d="M21 265L31 255L41 265" stroke="#ECECEC"/>
<path d="M1 265L11 255L21 265" stroke="#ECECEC"/>
<path d="M81 250L91 240L101 250" stroke="#ECECEC"/>
<path d="M61 250L71 240L81 250" stroke="#ECECEC"/>
<path d="M41 250L51 240L61 250" stroke="#ECECEC"/>
<path d="M21 250L31 240L41 250" stroke="#ECECEC"/>
<path d="M1 250L11 240L21 250" stroke="#ECECEC"/>
<path d="M81 235L91 225L101 235" stroke="#ECECEC"/>
<path d="M61 235L71 225L81 235" stroke="#ECECEC"/>
<path d="M41 235L51 225L61 235" stroke="#ECECEC"/>
<path d="M21 235L31 225L41 235" stroke="#ECECEC"/>
<path d="M1 235L11 225L21 235" stroke="#ECECEC"/>
<path d="M81 220L91 210L101 220" stroke="#ECECEC"/>
<path d="M61 220L71 210L81 220" stroke="#ECECEC"/>
<path d="M41 220L51 210L61 220" stroke="#ECECEC"/>
<path d="M21 220L31 210L41 220" stroke="#ECECEC"/>
<path d="M1 220L11 210L21 220" stroke="#ECECEC"/>
<path d="M81 205L91 195L101 205" stroke="#ECECEC"/>
<path d="M61 205L71 195L81 205" stroke="#ECECEC"/>
<path d="M41 205L51 195L61 205" stroke="#ECECEC"/>
<path d="M21 205L31 195L41 205" stroke="#ECECEC"/>
<path d="M1 205L11 195L21 205" stroke="#ECECEC"/>
<path d="M81 400L91 390L101 400" stroke="#ECECEC"/>
<path d="M61 400L71 390L81 400" stroke="#ECECEC"/>
<path d="M41 400L51 390L61 400" stroke="#ECECEC"/>
<path d="M21 400L31 390L41 400" stroke="#ECECEC"/>
<path d="M1 400L11 390L21 400" stroke="#ECECEC"/>
<path d="M81 385L91 375L101 385" stroke="#ECECEC"/>
<path d="M61 385L71 375L81 385" stroke="#ECECEC"/>
<path d="M41 385L51 375L61 385" stroke="#ECECEC"/>
<path d="M21 385L31 375L41 385" stroke="#ECECEC"/>
<path d="M1 385L11 375L21 385" stroke="#ECECEC"/>
<path d="M81 370L91 360L101 370" stroke="#ECECEC"/>
<path d="M61 370L71 360L81 370" stroke="#ECECEC"/>
<path d="M41 370L51 360L61 370" stroke="#ECECEC"/>
<path d="M21 370L31 360L41 370" stroke="#ECECEC"/>
<path d="M1 370L11 360L21 370" stroke="#ECECEC"/>
<path d="M81 355L91 345L101 355" stroke="#ECECEC"/>
<path d="M61 355L71 345L81 355" stroke="#ECECEC"/>
<path d="M41 355L51 345L61 355" stroke="#ECECEC"/>
<path d="M21 355L31 345L41 355" stroke="#ECECEC"/>
<path d="M1 355L11 345L21 355" stroke="#ECECEC"/>
<path d="M81 340L91 330L101 340" stroke="#ECECEC"/>
<path d="M61 340L71 330L81 340" stroke="#ECECEC"/>
<path d="M41 340L51 330L61 340" stroke="#ECECEC"/>
<path d="M21 340L31 330L41 340" stroke="#ECECEC"/>
<path d="M1 340L11 330L21 340" stroke="#ECECEC"/>
<path d="M81 325L91 315L101 325" stroke="#ECECEC"/>
<path d="M61 325L71 315L81 325" stroke="#ECECEC"/>
<path d="M41 325L51 315L61 325" stroke="#ECECEC"/>
<path d="M21 325L31 315L41 325" stroke="#ECECEC"/>
<path d="M1 325L11 315L21 325" stroke="#ECECEC"/>
<path d="M81 310L91 300L101 310" stroke="#ECECEC"/>
<path d="M61 310L71 300L81 310" stroke="#ECECEC"/>
<path d="M41 310L51 300L61 310" stroke="#ECECEC"/>
<path d="M21 310L31 300L41 310" stroke="#ECECEC"/>
<path d="M1 310L11 300L21 310" stroke="#ECECEC"/>
<path d="M381 100L391 90L401 100" stroke="#ECECEC"/>
<path d="M361 100L371 90L381 100" stroke="#ECECEC"/>
<path d="M341 100L351 90L361 100" stroke="#ECECEC"/>
<path d="M321 100L331 90L341 100" stroke="#ECECEC"/>
<path d="M301 100L311 90L321 100" stroke="#ECECEC"/>
<path d="M381 85L391 75L401 85" stroke="#ECECEC"/>
<path d="M361 85L371 75L381 85" stroke="#ECECEC"/>
<path d="M341 85L351 75L361 85" stroke="#ECECEC"/>
<path d="M321 85L331 75L341 85" stroke="#ECECEC"/>
<path d="M301 85L311 75L321 85" stroke="#ECECEC"/>
<path d="M381 70L391 60L401 70" stroke="#ECECEC"/>
<path d="M361 70L371 60L381 70" stroke="#ECECEC"/>
<path d="M341 70L351 60L361 70" stroke="#ECECEC"/>
<path d="M321 70L331 60L341 70" stroke="#ECECEC"/>
<path d="M301 70L311 60L321 70" stroke="#ECECEC"/>
<path d="M381 55L391 45L401 55" stroke="#ECECEC"/>
<path d="M361 55L371 45L381 55" stroke="#ECECEC"/>
<path d="M341 55L351 45L361 55" stroke="#ECECEC"/>
<path d="M321 55L331 45L341 55" stroke="#ECECEC"/>
<path d="M301 55L311 45L321 55" stroke="#ECECEC"/>
<path d="M381 40L391 30L401 40" stroke="#ECECEC"/>
<path d="M361 40L371 30L381 40" stroke="#ECECEC"/>
<path d="M341 40L351 30L361 40" stroke="#ECECEC"/>
<path d="M321 40L331 30L341 40" stroke="#ECECEC"/>
<path d="M301 40L311 30L321 40" stroke="#ECECEC"/>
<path d="M381 25L391 15L401 25" stroke="#ECECEC"/>
<path d="M361 25L371 15L381 25" stroke="#ECECEC"/>
<path d="M341 25L351 15L361 25" stroke="#ECECEC"/>
<path d="M321 25L331 15L341 25" stroke="#ECECEC"/>
<path d="M301 25L311 15L321 25" stroke="#ECECEC"/>
<path d="M381 10L391 0L401 10" stroke="#ECECEC"/>
<path d="M361 10L371 0L381 10" stroke="#ECECEC"/>
<path d="M341 10L351 0L361 10" stroke="#ECECEC"/>
<path d="M321 10L331 0L341 10" stroke="#ECECEC"/>
<path d="M301 10L311 0L321 10" stroke="#ECECEC"/>
<path d="M381 205L391 195L401 205" stroke="#ECECEC"/>
<path d="M361 205L371 195L381 205" stroke="#ECECEC"/>
<path d="M341 205L351 195L361 205" stroke="#ECECEC"/>
<path d="M321 205L331 195L341 205" stroke="#ECECEC"/>
<path d="M301 205L311 195L321 205" stroke="#ECECEC"/>
<path d="M381 190L391 180L401 190" stroke="#ECECEC"/>
<path d="M361 190L371 180L381 190" stroke="#ECECEC"/>
<path d="M341 190L351 180L361 190" stroke="#ECECEC"/>
<path d="M321 190L331 180L341 190" stroke="#ECECEC"/>
<path d="M301 190L311 180L321 190" stroke="#ECECEC"/>
<path d="M381 175L391 165L401 175" stroke="#ECECEC"/>
<path d="M361 175L371 165L381 175" stroke="#ECECEC"/>
<path d="M341 175L351 165L361 175" stroke="#ECECEC"/>
<path d="M321 175L331 165L341 175" stroke="#ECECEC"/>
<path d="M301 175L311 165L321 175" stroke="#ECECEC"/>
<path d="M381 160L391 150L401 160" stroke="#ECECEC"/>
<path d="M361 160L371 150L381 160" stroke="#ECECEC"/>
<path d="M341 160L351 150L361 160" stroke="#ECECEC"/>
<path d="M321 160L331 150L341 160" stroke="#ECECEC"/>
<path d="M301 160L311 150L321 160" stroke="#ECECEC"/>
<path d="M381 145L391 135L401 145" stroke="#ECECEC"/>
<path d="M361 145L371 135L381 145" stroke="#ECECEC"/>
<path d="M341 145L351 135L361 145" stroke="#ECECEC"/>
<path d="M321 145L331 135L341 145" stroke="#ECECEC"/>
<path d="M301 145L311 135L321 145" stroke="#ECECEC"/>
<path d="M381 130L391 120L401 130" stroke="#ECECEC"/>
<path d="M361 130L371 120L381 130" stroke="#ECECEC"/>
<path d="M341 130L351 120L361 130" stroke="#ECECEC"/>
<path d="M321 130L331 120L341 130" stroke="#ECECEC"/>
<path d="M301 130L311 120L321 130" stroke="#ECECEC"/>
<path d="M381 115L391 105L401 115" stroke="#ECECEC"/>
<path d="M361 115L371 105L381 115" stroke="#ECECEC"/>
<path d="M341 115L351 105L361 115" stroke="#ECECEC"/>
<path d="M321 115L331 105L341 115" stroke="#ECECEC"/>
<path d="M301 115L311 105L321 115" stroke="#ECECEC"/>
<path d="M381 100L391 90L401 100" stroke="#ECECEC"/>
<path d="M361 100L371 90L381 100" stroke="#ECECEC"/>
<path d="M341 100L351 90L361 100" stroke="#ECECEC"/>
<path d="M321 100L331 90L341 100" stroke="#ECECEC"/>
<path d="M301 100L311 90L321 100" stroke="#ECECEC"/>
<path d="M381 85L391 75L401 85" stroke="#ECECEC"/>
<path d="M361 85L371 75L381 85" stroke="#ECECEC"/>
<path d="M341 85L351 75L361 85" stroke="#ECECEC"/>
<path d="M321 85L331 75L341 85" stroke="#ECECEC"/>
<path d="M301 85L311 75L321 85" stroke="#ECECEC"/>
<path d="M381 70L391 60L401 70" stroke="#ECECEC"/>
<path d="M361 70L371 60L381 70" stroke="#ECECEC"/>
<path d="M341 70L351 60L361 70" stroke="#ECECEC"/>
<path d="M321 70L331 60L341 70" stroke="#ECECEC"/>
<path d="M301 70L311 60L321 70" stroke="#ECECEC"/>
<path d="M381 55L391 45L401 55" stroke="#ECECEC"/>
<path d="M361 55L371 45L381 55" stroke="#ECECEC"/>
<path d="M341 55L351 45L361 55" stroke="#ECECEC"/>
<path d="M321 55L331 45L341 55" stroke="#ECECEC"/>
<path d="M301 55L311 45L321 55" stroke="#ECECEC"/>
<path d="M381 40L391 30L401 40" stroke="#ECECEC"/>
<path d="M361 40L371 30L381 40" stroke="#ECECEC"/>
<path d="M341 40L351 30L361 40" stroke="#ECECEC"/>
<path d="M321 40L331 30L341 40" stroke="#ECECEC"/>
<path d="M301 40L311 30L321 40" stroke="#ECECEC"/>
<path d="M381 25L391 15L401 25" stroke="#ECECEC"/>
<path d="M361 25L371 15L381 25" stroke="#ECECEC"/>
<path d="M341 25L351 15L361 25" stroke="#ECECEC"/>
<path d="M321 25L331 15L341 25" stroke="#ECECEC"/>
<path d="M301 25L311 15L321 25" stroke="#ECECEC"/>
<path d="M381 10L391 0L401 10" stroke="#ECECEC"/>
<path d="M361 10L371 0L381 10" stroke="#ECECEC"/>
<path d="M341 10L351 0L361 10" stroke="#ECECEC"/>
<path d="M321 10L331 0L341 10" stroke="#ECECEC"/>
<path d="M301 10L311 0L321 10" stroke="#ECECEC"/>
<path d="M381 205L391 195L401 205" stroke="#ECECEC"/>
<path d="M361 205L371 195L381 205" stroke="#ECECEC"/>
<path d="M341 205L351 195L361 205" stroke="#ECECEC"/>
<path d="M321 205L331 195L341 205" stroke="#ECECEC"/>
<path d="M301 205L311 195L321 205" stroke="#ECECEC"/>
<path d="M381 190L391 180L401 190" stroke="#ECECEC"/>
<path d="M361 190L371 180L381 190" stroke="#ECECEC"/>
<path d="M341 190L351 180L361 190" stroke="#ECECEC"/>
<path d="M321 190L331 180L341 190" stroke="#ECECEC"/>
<path d="M301 190L311 180L321 190" stroke="#ECECEC"/>
<path d="M381 175L391 165L401 175" stroke="#ECECEC"/>
<path d="M361 175L371 165L381 175" stroke="#ECECEC"/>
<path d="M341 175L351 165L361 175" stroke="#ECECEC"/>
<path d="M321 175L331 165L341 175" stroke="#ECECEC"/>
<path d="M301 175L311 165L321 175" stroke="#ECECEC"/>
<path d="M381 160L391 150L401 160" stroke="#ECECEC"/>
<path d="M361 160L371 150L381 160" stroke="#ECECEC"/>
<path d="M341 160L351 150L361 160" stroke="#ECECEC"/>
<path d="M321 160L331 150L341 160" stroke="#ECECEC"/>
<path d="M301 160L311 150L321 160" stroke="#ECECEC"/>
<path d="M381 145L391 135L401 145" stroke="#ECECEC"/>
<path d="M361 145L371 135L381 145" stroke="#ECECEC"/>
<path d="M341 145L351 135L361 145" stroke="#ECECEC"/>
<path d="M321 145L331 135L341 145" stroke="#ECECEC"/>
<path d="M301 145L311 135L321 145" stroke="#ECECEC"/>
<path d="M381 130L391 120L401 130" stroke="#ECECEC"/>
<path d="M361 130L371 120L381 130" stroke="#ECECEC"/>
<path d="M341 130L351 120L361 130" stroke="#ECECEC"/>
<path d="M321 130L331 120L341 130" stroke="#ECECEC"/>
<path d="M301 130L311 120L321 130" stroke="#ECECEC"/>
<path d="M381 115L391 105L401 115" stroke="#ECECEC"/>
<path d="M361 115L371 105L381 115" stroke="#ECECEC"/>
<path d="M341 115L351 105L361 115" stroke="#ECECEC"/>
<path d="M321 115L331 105L341 115" stroke="#ECECEC"/>
<path d="M301 115L311 105L321 115" stroke="#ECECEC"/>
<path d="M281 100L291 90L301 100" stroke="#ECECEC"/>
<path d="M261 100L271 90L281 100" stroke="#ECECEC"/>
<path d="M241 100L251 90L261 100" stroke="#ECECEC"/>
<path d="M221 100L231 90L241 100" stroke="#ECECEC"/>
<path d="M201 100L211 90L221 100" stroke="#ECECEC"/>
<path d="M281 85L291 75L301 85" stroke="#ECECEC"/>
<path d="M261 85L271 75L281 85" stroke="#ECECEC"/>
<path d="M241 85L251 75L261 85" stroke="#ECECEC"/>
<path d="M221 85L231 75L241 85" stroke="#ECECEC"/>
<path d="M201 85L211 75L221 85" stroke="#ECECEC"/>
<path d="M281 70L291 60L301 70" stroke="#ECECEC"/>
<path d="M261 70L271 60L281 70" stroke="#ECECEC"/>
<path d="M241 70L251 60L261 70" stroke="#ECECEC"/>
<path d="M221 70L231 60L241 70" stroke="#ECECEC"/>
<path d="M201 70L211 60L221 70" stroke="#ECECEC"/>
<path d="M281 55L291 45L301 55" stroke="#ECECEC"/>
<path d="M261 55L271 45L281 55" stroke="#ECECEC"/>
<path d="M241 55L251 45L261 55" stroke="#ECECEC"/>
<path d="M221 55L231 45L241 55" stroke="#ECECEC"/>
<path d="M201 55L211 45L221 55" stroke="#ECECEC"/>
<path d="M281 40L291 30L301 40" stroke="#ECECEC"/>
<path d="M261 40L271 30L281 40" stroke="#ECECEC"/>
<path d="M241 40L251 30L261 40" stroke="#ECECEC"/>
<path d="M221 40L231 30L241 40" stroke="#ECECEC"/>
<path d="M201 40L211 30L221 40" stroke="#ECECEC"/>
<path d="M281 25L291 15L301 25" stroke="#ECECEC"/>
<path d="M261 25L271 15L281 25" stroke="#ECECEC"/>
<path d="M241 25L251 15L261 25" stroke="#ECECEC"/>
<path d="M221 25L231 15L241 25" stroke="#ECECEC"/>
<path d="M201 25L211 15L221 25" stroke="#ECECEC"/>
<path d="M281 10L291 0L301 10" stroke="#ECECEC"/>
<path d="M261 10L271 0L281 10" stroke="#ECECEC"/>
<path d="M241 10L251 0L261 10" stroke="#ECECEC"/>
<path d="M221 10L231 0L241 10" stroke="#ECECEC"/>
<path d="M201 10L211 0L221 10" stroke="#ECECEC"/>
<path d="M281 205L291 195L301 205" stroke="#ECECEC"/>
<path d="M261 205L271 195L281 205" stroke="#ECECEC"/>
<path d="M241 205L251 195L261 205" stroke="#ECECEC"/>
<path d="M221 205L231 195L241 205" stroke="#ECECEC"/>
<path d="M201 205L211 195L221 205" stroke="#ECECEC"/>
<path d="M281 190L291 180L301 190" stroke="#ECECEC"/>
<path d="M261 190L271 180L281 190" stroke="#ECECEC"/>
<path d="M241 190L251 180L261 190" stroke="#ECECEC"/>
<path d="M221 190L231 180L241 190" stroke="#ECECEC"/>
<path d="M201 190L211 180L221 190" stroke="#ECECEC"/>
<path d="M281 175L291 165L301 175" stroke="#ECECEC"/>
<path d="M261 175L271 165L281 175" stroke="#ECECEC"/>
<path d="M241 175L251 165L261 175" stroke="#ECECEC"/>
<path d="M221 175L231 165L241 175" stroke="#ECECEC"/>
<path d="M201 175L211 165L221 175" stroke="#ECECEC"/>
<path d="M281 160L291 150L301 160" stroke="#ECECEC"/>
<path d="M261 160L271 150L281 160" stroke="#ECECEC"/>
<path d="M241 160L251 150L261 160" stroke="#ECECEC"/>
<path d="M221 160L231 150L241 160" stroke="#ECECEC"/>
<path d="M201 160L211 150L221 160" stroke="#ECECEC"/>
<path d="M281 145L291 135L301 145" stroke="#ECECEC"/>
<path d="M261 145L271 135L281 145" stroke="#ECECEC"/>
<path d="M241 145L251 135L261 145" stroke="#ECECEC"/>
<path d="M221 145L231 135L241 145" stroke="#ECECEC"/>
<path d="M201 145L211 135L221 145" stroke="#ECECEC"/>
<path d="M281 130L291 120L301 130" stroke="#ECECEC"/>
<path d="M261 130L271 120L281 130" stroke="#ECECEC"/>
<path d="M241 130L251 120L261 130" stroke="#ECECEC"/>
<path d="M221 130L231 120L241 130" stroke="#ECECEC"/>
<path d="M201 130L211 120L221 130" stroke="#ECECEC"/>
<path d="M281 115L291 105L301 115" stroke="#ECECEC"/>
<path d="M261 115L271 105L281 115" stroke="#ECECEC"/>
<path d="M241 115L251 105L261 115" stroke="#ECECEC"/>
<path d="M221 115L231 105L241 115" stroke="#ECECEC"/>
<path d="M201 115L211 105L221 115" stroke="#ECECEC"/>
<path d="M381 295L391 285L401 295" stroke="#ECECEC"/>
<path d="M361 295L371 285L381 295" stroke="#ECECEC"/>
<path d="M341 295L351 285L361 295" stroke="#ECECEC"/>
<path d="M321 295L331 285L341 295" stroke="#ECECEC"/>
<path d="M301 295L311 285L321 295" stroke="#ECECEC"/>
<path d="M381 280L391 270L401 280" stroke="#ECECEC"/>
<path d="M361 280L371 270L381 280" stroke="#ECECEC"/>
<path d="M341 280L351 270L361 280" stroke="#ECECEC"/>
<path d="M321 280L331 270L341 280" stroke="#ECECEC"/>
<path d="M301 280L311 270L321 280" stroke="#ECECEC"/>
<path d="M381 265L391 255L401 265" stroke="#ECECEC"/>
<path d="M361 265L371 255L381 265" stroke="#ECECEC"/>
<path d="M341 265L351 255L361 265" stroke="#ECECEC"/>
<path d="M321 265L331 255L341 265" stroke="#ECECEC"/>
<path d="M301 265L311 255L321 265" stroke="#ECECEC"/>
<path d="M381 250L391 240L401 250" stroke="#ECECEC"/>
<path d="M361 250L371 240L381 250" stroke="#ECECEC"/>
<path d="M341 250L351 240L361 250" stroke="#ECECEC"/>
<path d="M321 250L331 240L341 250" stroke="#ECECEC"/>
<path d="M301 250L311 240L321 250" stroke="#ECECEC"/>
<path d="M381 235L391 225L401 235" stroke="#ECECEC"/>
<path d="M361 235L371 225L381 235" stroke="#ECECEC"/>
<path d="M341 235L351 225L361 235" stroke="#ECECEC"/>
<path d="M321 235L331 225L341 235" stroke="#ECECEC"/>
<path d="M301 235L311 225L321 235" stroke="#ECECEC"/>
<path d="M381 220L391 210L401 220" stroke="#ECECEC"/>
<path d="M361 220L371 210L381 220" stroke="#ECECEC"/>
<path d="M341 220L351 210L361 220" stroke="#ECECEC"/>
<path d="M321 220L331 210L341 220" stroke="#ECECEC"/>
<path d="M301 220L311 210L321 220" stroke="#ECECEC"/>
<path d="M381 205L391 195L401 205" stroke="#ECECEC"/>
<path d="M361 205L371 195L381 205" stroke="#ECECEC"/>
<path d="M341 205L351 195L361 205" stroke="#ECECEC"/>
<path d="M321 205L331 195L341 205" stroke="#ECECEC"/>
<path d="M301 205L311 195L321 205" stroke="#ECECEC"/>
<path d="M381 400L391 390L401 400" stroke="#ECECEC"/>
<path d="M361 400L371 390L381 400" stroke="#ECECEC"/>
<path d="M341 400L351 390L361 400" stroke="#ECECEC"/>
<path d="M321 400L331 390L341 400" stroke="#ECECEC"/>
<path d="M301 400L311 390L321 400" stroke="#ECECEC"/>
<path d="M381 385L391 375L401 385" stroke="#ECECEC"/>
<path d="M361 385L371 375L381 385" stroke="#ECECEC"/>
<path d="M341 385L351 375L361 385" stroke="#ECECEC"/>
<path d="M321 385L331 375L341 385" stroke="#ECECEC"/>
<path d="M301 385L311 375L321 385" stroke="#ECECEC"/>
<path d="M381 370L391 360L401 370" stroke="#ECECEC"/>
<path d="M361 370L371 360L381 370" stroke="#ECECEC"/>
<path d="M341 370L351 360L361 370" stroke="#ECECEC"/>
<path d="M321 370L331 360L341 370" stroke="#ECECEC"/>
<path d="M301 370L311 360L321 370" stroke="#ECECEC"/>
<path d="M381 355L391 345L401 355" stroke="#ECECEC"/>
<path d="M361 355L371 345L381 355" stroke="#ECECEC"/>
<path d="M341 355L351 345L361 355" stroke="#ECECEC"/>
<path d="M321 355L331 345L341 355" stroke="#ECECEC"/>
<path d="M301 355L311 345L321 355" stroke="#ECECEC"/>
<path d="M381 340L391 330L401 340" stroke="#ECECEC"/>
<path d="M361 340L371 330L381 340" stroke="#ECECEC"/>
<path d="M341 340L351 330L361 340" stroke="#ECECEC"/>
<path d="M321 340L331 330L341 340" stroke="#ECECEC"/>
<path d="M301 340L311 330L321 340" stroke="#ECECEC"/>
<path d="M381 325L391 315L401 325" stroke="#ECECEC"/>
<path d="M361 325L371 315L381 325" stroke="#ECECEC"/>
<path d="M341 325L351 315L361 325" stroke="#ECECEC"/>
<path d="M321 325L331 315L341 325" stroke="#ECECEC"/>
<path d="M301 325L311 315L321 325" stroke="#ECECEC"/>
<path d="M381 310L391 300L401 310" stroke="#ECECEC"/>
<path d="M361 310L371 300L381 310" stroke="#ECECEC"/>
<path d="M341 310L351 300L361 310" stroke="#ECECEC"/>
<path d="M321 310L331 300L341 310" stroke="#ECECEC"/>
<path d="M301 310L311 300L321 310" stroke="#ECECEC"/>
<path d="M381 295L391 285L401 295" stroke="#ECECEC"/>
<path d="M361 295L371 285L381 295" stroke="#ECECEC"/>
<path d="M341 295L351 285L361 295" stroke="#ECECEC"/>
<path d="M321 295L331 285L341 295" stroke="#ECECEC"/>
<path d="M301 295L311 285L321 295" stroke="#ECECEC"/>
<path d="M381 280L391 270L401 280" stroke="#ECECEC"/>
<path d="M361 280L371 270L381 280" stroke="#ECECEC"/>
<path d="M341 280L351 270L361 280" stroke="#ECECEC"/>
<path d="M321 280L331 270L341 280" stroke="#ECECEC"/>
<path d="M301 280L311 270L321 280" stroke="#ECECEC"/>
<path d="M381 265L391 255L401 265" stroke="#ECECEC"/>
<path d="M361 265L371 255L381 265" stroke="#ECECEC"/>
<path d="M341 265L351 255L361 265" stroke="#ECECEC"/>
<path d="M321 265L331 255L341 265" stroke="#ECECEC"/>
<path d="M301 265L311 255L321 265" stroke="#ECECEC"/>
<path d="M381 250L391 240L401 250" stroke="#ECECEC"/>
<path d="M361 250L371 240L381 250" stroke="#ECECEC"/>
<path d="M341 250L351 240L361 250" stroke="#ECECEC"/>
<path d="M321 250L331 240L341 250" stroke="#ECECEC"/>
<path d="M301 250L311 240L321 250" stroke="#ECECEC"/>
<path d="M381 235L391 225L401 235" stroke="#ECECEC"/>
<path d="M361 235L371 225L381 235" stroke="#ECECEC"/>
<path d="M341 235L351 225L361 235" stroke="#ECECEC"/>
<path d="M321 235L331 225L341 235" stroke="#ECECEC"/>
<path d="M301 235L311 225L321 235" stroke="#ECECEC"/>
<path d="M381 220L391 210L401 220" stroke="#ECECEC"/>
<path d="M361 220L371 210L381 220" stroke="#ECECEC"/>
<path d="M341 220L351 210L361 220" stroke="#ECECEC"/>
<path d="M321 220L331 210L341 220" stroke="#ECECEC"/>
<path d="M301 220L311 210L321 220" stroke="#ECECEC"/>
<path d="M381 205L391 195L401 205" stroke="#ECECEC"/>
<path d="M361 205L371 195L381 205" stroke="#ECECEC"/>
<path d="M341 205L351 195L361 205" stroke="#ECECEC"/>
<path d="M321 205L331 195L341 205" stroke="#ECECEC"/>
<path d="M301 205L311 195L321 205" stroke="#ECECEC"/>
<path d="M381 400L391 390L401 400" stroke="#ECECEC"/>
<path d="M361 400L371 390L381 400" stroke="#ECECEC"/>
<path d="M341 400L351 390L361 400" stroke="#ECECEC"/>
<path d="M321 400L331 390L341 400" stroke="#ECECEC"/>
<path d="M301 400L311 390L321 400" stroke="#ECECEC"/>
<path d="M381 385L391 375L401 385" stroke="#ECECEC"/>
<path d="M361 385L371 375L381 385" stroke="#ECECEC"/>
<path d="M341 385L351 375L361 385" stroke="#ECECEC"/>
<path d="M321 385L331 375L341 385" stroke="#ECECEC"/>
<path d="M301 385L311 375L321 385" stroke="#ECECEC"/>
<path d="M381 370L391 360L401 370" stroke="#ECECEC"/>
<path d="M361 370L371 360L381 370" stroke="#ECECEC"/>
<path d="M341 370L351 360L361 370" stroke="#ECECEC"/>
<path d="M321 370L331 360L341 370" stroke="#ECECEC"/>
<path d="M301 370L311 360L321 370" stroke="#ECECEC"/>
<path d="M381 355L391 345L401 355" stroke="#ECECEC"/>
<path d="M361 355L371 345L381 355" stroke="#ECECEC"/>
<path d="M341 355L351 345L361 355" stroke="#ECECEC"/>
<path d="M321 355L331 345L341 355" stroke="#ECECEC"/>
<path d="M301 355L311 345L321 355" stroke="#ECECEC"/>
<path d="M381 340L391 330L401 340" stroke="#ECECEC"/>
<path d="M361 340L371 330L381 340" stroke="#ECECEC"/>
<path d="M341 340L351 330L361 340" stroke="#ECECEC"/>
<path d="M321 340L331 330L341 340" stroke="#ECECEC"/>
<path d="M301 340L311 330L321 340" stroke="#ECECEC"/>
<path d="M381 325L391 315L401 325" stroke="#ECECEC"/>
<path d="M361 325L371 315L381 325" stroke="#ECECEC"/>
<path d="M341 325L351 315L361 325" stroke="#ECECEC"/>
<path d="M321 325L331 315L341 325" stroke="#ECECEC"/>
<path d="M301 325L311 315L321 325" stroke="#ECECEC"/>
<path d="M381 310L391 300L401 310" stroke="#ECECEC"/>
<path d="M361 310L371 300L381 310" stroke="#ECECEC"/>
<path d="M341 310L351 300L361 310" stroke="#ECECEC"/>
<path d="M321 310L331 300L341 310" stroke="#ECECEC"/>
<path d="M301 310L311 300L321 310" stroke="#ECECEC"/>
<path d="M281 295L291 285L301 295" stroke="#ECECEC"/>
<path d="M261 295L271 285L281 295" stroke="#ECECEC"/>
<path d="M241 295L251 285L261 295" stroke="#ECECEC"/>
<path d="M221 295L231 285L241 295" stroke="#ECECEC"/>
<path d="M201 295L211 285L221 295" stroke="#ECECEC"/>
<path d="M281 280L291 270L301 280" stroke="#ECECEC"/>
<path d="M261 280L271 270L281 280" stroke="#ECECEC"/>
<path d="M241 280L251 270L261 280" stroke="#ECECEC"/>
<path d="M221 280L231 270L241 280" stroke="#ECECEC"/>
<path d="M201 280L211 270L221 280" stroke="#ECECEC"/>
<path d="M281 265L291 255L301 265" stroke="#ECECEC"/>
<path d="M261 265L271 255L281 265" stroke="#ECECEC"/>
<path d="M241 265L251 255L261 265" stroke="#ECECEC"/>
<path d="M221 265L231 255L241 265" stroke="#ECECEC"/>
<path d="M201 265L211 255L221 265" stroke="#ECECEC"/>
<path d="M281 250L291 240L301 250" stroke="#ECECEC"/>
<path d="M261 250L271 240L281 250" stroke="#ECECEC"/>
<path d="M241 250L251 240L261 250" stroke="#ECECEC"/>
<path d="M221 250L231 240L241 250" stroke="#ECECEC"/>
<path d="M201 250L211 240L221 250" stroke="#ECECEC"/>
<path d="M281 235L291 225L301 235" stroke="#ECECEC"/>
<path d="M261 235L271 225L281 235" stroke="#ECECEC"/>
<path d="M241 235L251 225L261 235" stroke="#ECECEC"/>
<path d="M221 235L231 225L241 235" stroke="#ECECEC"/>
<path d="M201 235L211 225L221 235" stroke="#ECECEC"/>
<path d="M281 220L291 210L301 220" stroke="#ECECEC"/>
<path d="M261 220L271 210L281 220" stroke="#ECECEC"/>
<path d="M241 220L251 210L261 220" stroke="#ECECEC"/>
<path d="M221 220L231 210L241 220" stroke="#ECECEC"/>
<path d="M201 220L211 210L221 220" stroke="#ECECEC"/>
<path d="M281 205L291 195L301 205" stroke="#ECECEC"/>
<path d="M261 205L271 195L281 205" stroke="#ECECEC"/>
<path d="M241 205L251 195L261 205" stroke="#ECECEC"/>
<path d="M221 205L231 195L241 205" stroke="#ECECEC"/>
<path d="M201 205L211 195L221 205" stroke="#ECECEC"/>
<path d="M281 400L291 390L301 400" stroke="#ECECEC"/>
<path d="M261 400L271 390L281 400" stroke="#ECECEC"/>
<path d="M241 400L251 390L261 400" stroke="#ECECEC"/>
<path d="M221 400L231 390L241 400" stroke="#ECECEC"/>
<path d="M201 400L211 390L221 400" stroke="#ECECEC"/>
<path d="M281 385L291 375L301 385" stroke="#ECECEC"/>
<path d="M261 385L271 375L281 385" stroke="#ECECEC"/>
<path d="M241 385L251 375L261 385" stroke="#ECECEC"/>
<path d="M221 385L231 375L241 385" stroke="#ECECEC"/>
<path d="M201 385L211 375L221 385" stroke="#ECECEC"/>
<path d="M281 370L291 360L301 370" stroke="#ECECEC"/>
<path d="M261 370L271 360L281 370" stroke="#ECECEC"/>
<path d="M241 370L251 360L261 370" stroke="#ECECEC"/>
<path d="M221 370L231 360L241 370" stroke="#ECECEC"/>
<path d="M201 370L211 360L221 370" stroke="#ECECEC"/>
<path d="M281 355L291 345L301 355" stroke="#ECECEC"/>
<path d="M261 355L271 345L281 355" stroke="#ECECEC"/>
<path d="M241 355L251 345L261 355" stroke="#ECECEC"/>
<path d="M221 355L231 345L241 355" stroke="#ECECEC"/>
<path d="M201 355L211 345L221 355" stroke="#ECECEC"/>
<path d="M281 340L291 330L301 340" stroke="#ECECEC"/>
<path d="M261 340L271 330L281 340" stroke="#ECECEC"/>
<path d="M241 340L251 330L261 340" stroke="#ECECEC"/>
<path d="M221 340L231 330L241 340" stroke="#ECECEC"/>
<path d="M201 340L211 330L221 340" stroke="#ECECEC"/>
<path d="M281 325L291 315L301 325" stroke="#ECECEC"/>
<path d="M261 325L271 315L281 325" stroke="#ECECEC"/>
<path d="M241 325L251 315L261 325" stroke="#ECECEC"/>
<path d="M221 325L231 315L241 325" stroke="#ECECEC"/>
<path d="M201 325L211 315L221 325" stroke="#ECECEC"/>
<path d="M281 310L291 300L301 310" stroke="#ECECEC"/>
<path d="M261 310L271 300L281 310" stroke="#ECECEC"/>
<path d="M241 310L251 300L261 310" stroke="#ECECEC"/>
<path d="M221 310L231 300L241 310" stroke="#ECECEC"/>
<path d="M201 310L211 300L221 310" stroke="#ECECEC"/>
</svg>
