<svg width="120" height="26" viewBox="0 0 120 26" fill="none" xmlns="http://www.w3.org/2000/svg">
<rect width="25.6941" height="25.6941" fill="white"/>
<path fill-rule="evenodd" clip-rule="evenodd" d="M42.1694 18.8208H39.1085V12.8352L34.861 18.8208H32.4707V6.91766H35.5488V12.9032L39.7963 6.91766H42.1694V18.8208ZM49.7701 13.2433V10.3185H52.6247V18.8207H49.7701V15.896H47.2423V18.8207H44.3877V10.3185H47.2423V13.2433H49.7701ZM58.8499 19.0588C57.543 19.0588 56.4596 18.6337 55.5826 17.7665C54.7056 16.8992 54.2757 15.845 54.2757 14.5696C54.2757 13.2943 54.7056 12.24 55.5826 11.3728C56.4596 10.5056 57.543 10.0805 58.8499 10.0805C60.5523 10.0805 62.014 10.9307 62.7707 12.274L60.3288 13.6684C60.0193 13.1073 59.5206 12.8352 58.8327 12.8352C57.8697 12.8352 57.1475 13.5494 57.1475 14.5696C57.1475 15.5899 57.8697 16.3041 58.8327 16.3041C59.5378 16.3041 60.0365 16.015 60.3288 15.4539L62.7707 16.8482C62.014 18.2086 60.5523 19.0588 58.8499 19.0588ZM63.4585 10.3185H71.2656V13.0222H68.8066V18.8207H65.952V13.0222H63.4585V10.3185ZM78.4537 11.1007V10.3185H81.3083V18.8207H78.4537V18.0385C77.869 18.7187 77.0608 19.0588 76.0118 19.0588C74.8597 19.0588 73.8967 18.6337 73.1229 17.7835C72.349 16.9163 71.9707 15.845 71.9707 14.5696C71.9707 13.2943 72.349 12.223 73.1229 11.3728C73.8967 10.5056 74.8597 10.0805 76.0118 10.0805C77.0608 10.0805 77.869 10.4206 78.4537 11.1007ZM75.3409 15.913C75.6677 16.2531 76.1148 16.4231 76.6479 16.4231C77.1809 16.4231 77.628 16.2531 77.9548 15.913C78.2815 15.5729 78.4535 15.1308 78.4535 14.5696C78.4535 14.0085 78.2815 13.5664 77.9548 13.2263C77.628 12.8862 77.1809 12.7162 76.6479 12.7162C76.1148 12.7162 75.6677 12.8862 75.3409 13.2263C75.0142 13.5664 74.8422 14.0085 74.8422 14.5696C74.8422 15.1308 75.0142 15.5729 75.3409 15.913ZM82.7008 10.3185H90.508V13.0222H88.0489V18.8207H85.1943V13.0222H82.7008V10.3185ZM100.104 15.6069H94.1708C94.4631 16.3041 95.0994 16.6442 96.0968 16.6442C96.7159 16.6442 97.2318 16.4401 97.6617 16.049L99.7252 17.4774C98.8826 18.5317 97.6445 19.0588 96.028 19.0588C94.5663 19.0588 93.397 18.6337 92.52 17.8005C91.6429 16.9503 91.213 15.879 91.213 14.5866C91.213 13.3113 91.6429 12.24 92.5028 11.3728C93.3626 10.5056 94.4631 10.0805 95.7873 10.0805C97.077 10.0805 98.126 10.5056 98.9686 11.3558C99.8112 12.206 100.224 13.2773 100.224 14.5526C100.224 14.9267 100.19 15.2838 100.104 15.6069ZM94.1366 13.6514H97.4383C97.2147 12.8522 96.6644 12.4611 95.8218 12.4611C94.9448 12.4611 94.3773 12.8522 94.1366 13.6514ZM107.361 14.5696L110.37 18.8207H107.172L104.73 15.1988V18.8207H101.875V10.3185H104.73V13.8724L106.948 10.3185H110.25L107.361 14.5696ZM117.145 11.1007V10.3185H120V18.8207H117.145V18.0385C116.561 18.7187 115.752 19.0588 114.703 19.0588C113.551 19.0588 112.588 18.6337 111.815 17.7835C111.041 16.9163 110.662 15.845 110.662 14.5696C110.662 13.2943 111.041 12.223 111.815 11.3728C112.588 10.5056 113.551 10.0805 114.703 10.0805C115.752 10.0805 116.561 10.4206 117.145 11.1007ZM114.033 15.913C114.359 16.2531 114.807 16.4231 115.34 16.4231C115.873 16.4231 116.32 16.2531 116.647 15.913C116.973 15.5729 117.145 15.1308 117.145 14.5696C117.145 14.0085 116.973 13.5664 116.647 13.2263C116.32 12.8862 115.873 12.7162 115.34 12.7162C114.807 12.7162 114.359 12.8862 114.033 13.2263C113.706 13.5664 113.534 14.0085 113.534 14.5696C113.534 15.1308 113.706 15.5729 114.033 15.913Z" fill="#ECECEC"/>
<path fill-rule="evenodd" clip-rule="evenodd" d="M25.6941 0H0V25.6941H25.6941V0ZM15.8877 7.09966H12.9527L10.1426 19.3081H13.0776L15.8877 7.09966Z" fill="#ECECEC"/>
</svg>
