<svg width="292" height="13" viewBox="0 0 292 13" fill="none" xmlns="http://www.w3.org/2000/svg">
<path d="M161 12L171 2L181 12" stroke="#ECECEC" stroke-width="2"/>
<path d="M141 12L151 2L161 12" stroke="#ECECEC" stroke-width="2"/>
<path d="M121 12L131 2L141 12" stroke="#ECECEC" stroke-width="2"/>
<path d="M101 12L111 2L121 12" stroke="#ECECEC" stroke-width="2"/>
<path d="M81 12L91 2L101 12" stroke="#ECECEC" stroke-width="2"/>
<path d="M61 12L71 2L81 12" stroke="#ECECEC" stroke-width="2"/>
<path d="M41 12L51 2L61 12" stroke="#ECECEC" stroke-width="2"/>
<path d="M21 12L31 2L41 12" stroke="#ECECEC" stroke-width="2"/>
<path d="M1 12L11 2L21 12" stroke="#ECECEC" stroke-width="2"/>
<path d="M281 12L291 2" stroke="#ECECEC" stroke-width="2"/>
<path d="M261 12L271 2L281 12" stroke="#ECECEC" stroke-width="2"/>
<path d="M241 12L251 2L261 12" stroke="#ECECEC" stroke-width="2"/>
<path d="M221 12L231 2L241 12" stroke="#ECECEC" stroke-width="2"/>
<path d="M201 12L211 2L221 12" stroke="#ECECEC" stroke-width="2"/>
<path d="M181 12L191 2L201 12" stroke="#ECECEC" stroke-width="2"/>
</svg>
